<?xml version="1.0" standalone="no"?>
<!DOCTYPE svg PUBLIC "-//W3C//DTD SVG 20010904//EN"
 "http://www.w3.org/TR/2001/REC-SVG-20010904/DTD/svg10.dtd">
<svg version="1.0" xmlns="http://www.w3.org/2000/svg"
 width="6500.000000pt" height="6500.000000pt" viewBox="0 0 592.000000 600.000000"
 preserveAspectRatio="xMidYMid meet">

<g transform="translate(0.000000,600.000000) scale(0.100000,-0.100000)"
fill="#000000" stroke="none">
<path d="M2041 5569 c-20 -78 -78 -153 -223 -290 -149 -141 -186 -199 -215
-332 -28 -134 -1 -349 62 -481 36 -76 114 -159 181 -192 58 -28 194 -48 180
-25 -4 6 -15 11 -24 11 -9 0 -44 13 -78 29 -115 54 -204 175 -235 316 -7 33
-13 125 -13 205 -1 226 17 268 202 456 119 122 151 174 172 282 15 76 9 91 -9
21z"/>
<path d="M2610 5505 c-94 -49 -140 -92 -140 -130 0 -43 35 -29 107 43 78 77
129 132 122 132 -2 0 -42 -21 -89 -45z"/>
<path d="M3015 5539 c-102 -23 -183 -57 -275 -115 -156 -98 -256 -244 -294
-427 -41 -199 0 -473 95 -624 16 -26 50 -79 74 -118 25 -38 45 -75 45 -81 0
-8 -16 -7 -52 3 -177 46 -271 37 -550 -52 -216 -69 -342 -90 -458 -76 -142 18
-228 71 -297 184 l-38 62 0 130 c0 120 2 134 27 188 41 88 15 68 -31 -24 l-41
-81 0 -128 c0 -121 1 -130 30 -187 33 -67 114 -149 176 -181 71 -36 155 -52
278 -52 64 0 116 -4 116 -8 0 -11 -121 -198 -172 -268 -100 -135 -212 -194
-368 -194 -117 0 -214 40 -310 127 -59 53 -48 22 14 -42 128 -131 336 -168
529 -94 84 32 173 112 273 246 49 65 105 134 124 153 39 39 186 119 278 152
81 28 249 36 322 14 160 -47 274 -208 256 -360 -6 -59 -24 -116 -35 -116 -4 0
-13 11 -19 24 -20 44 -84 107 -136 133 -105 53 -193 68 -286 49 -128 -27 -190
-65 -388 -235 -58 -49 -128 -98 -184 -126 l-89 -47 -167 4 c-92 2 -176 7 -187
11 -11 4 3 -3 30 -17 144 -68 368 -60 499 19 30 18 104 72 164 119 196 153
285 192 418 184 49 -3 82 -11 101 -24 15 -10 37 -23 48 -29 11 -6 35 -33 53
-60 33 -49 34 -52 30 -135 -4 -94 -10 -108 -126 -315 -73 -131 -106 -246 -104
-368 1 -58 -2 -79 -12 -83 -18 -7 -80 25 -171 86 -158 106 -291 159 -451 181
-147 19 -291 1 -539 -69 -115 -32 -143 -37 -245 -37 -112 0 -118 1 -183 34
-85 43 -191 134 -235 203 -19 30 -31 42 -27 28 14 -49 113 -185 158 -218 181
-130 362 -142 732 -51 61 15 123 23 190 23 97 1 102 0 174 -37 41 -21 85 -46
97 -55 11 -9 48 -37 80 -62 l59 -44 -30 -7 c-17 -4 -56 -13 -87 -19 -145 -29
-314 -145 -413 -285 -55 -78 -72 -112 -135 -279 -84 -222 -148 -313 -260 -369
-47 -23 -66 -27 -144 -27 -149 0 -239 34 -329 125 -25 25 -59 68 -76 97 -40
70 -40 52 1 -26 64 -121 182 -209 317 -237 87 -18 215 -7 284 24 116 52 214
194 302 433 49 136 174 296 284 366 104 65 280 93 406 64 164 -39 360 -174
446 -308 36 -55 32 -70 -13 -58 -17 5 -70 12 -117 16 -298 22 -560 -131 -669
-391 -57 -137 -68 -375 -24 -499 29 -80 90 -156 154 -192 103 -56 244 -33 343
58 56 51 73 81 171 296 45 99 99 151 183 176 61 18 147 21 156 6 11 -18 -15
-274 -35 -349 -42 -151 -152 -345 -245 -429 -187 -171 -409 -276 -635 -300
l-75 -8 40 -12 c22 -7 92 -15 157 -19 124 -6 197 3 301 39 32 11 61 17 64 14
8 -7 10 -5 -52 -47 -28 -19 -69 -41 -93 -48 -23 -8 -42 -18 -42 -23 0 -20 204
2 304 33 75 24 120 46 179 92 53 41 71 31 65 -36 -5 -65 -45 -128 -102 -162
-49 -29 -31 -32 57 -9 88 23 167 66 234 128 l60 55 49 -50 c51 -53 154 -118
214 -137 50 -16 212 -31 230 -21 11 6 9 8 -10 9 -47 0 -144 55 -191 108 -45
49 -79 132 -79 190 0 35 15 34 72 -4 153 -104 285 -143 508 -151 146 -5 161
-4 268 22 61 16 112 31 112 36 0 4 -62 9 -137 11 -118 3 -149 8 -211 30 -199
72 -342 212 -423 414 -40 101 -59 202 -62 342 l-2 116 34 23 c45 31 119 31
172 2 21 -12 72 -64 115 -116 117 -144 164 -171 339 -192 44 -5 100 -13 125
-16 l45 -6 -34 16 c-19 8 -86 29 -150 46 -156 41 -188 61 -271 172 -37 51 -83
106 -101 124 -51 48 -122 76 -199 77 l-65 1 3 35 c2 19 12 61 22 93 87 279
416 300 709 45 283 -246 377 -292 606 -291 171 0 313 54 421 158 42 42 104
136 104 160 0 3 -21 -22 -47 -56 -57 -75 -167 -161 -243 -191 -46 -18 -76 -22
-185 -22 -122 -1 -136 1 -228 33 -125 43 -160 67 -320 219 -149 140 -186 169
-290 217 -90 43 -159 61 -270 70 -48 4 -87 12 -87 17 0 13 132 73 205 92 81
22 263 31 351 17 124 -19 197 -48 336 -133 246 -151 323 -180 489 -180 198 1
356 74 491 230 86 99 169 291 167 387 l0 30 -13 -35 c-7 -19 -30 -69 -51 -110
-119 -236 -278 -383 -462 -426 -86 -20 -156 -19 -230 2 -81 23 -133 51 -291
156 -234 156 -378 212 -574 225 -54 3 -101 9 -103 14 -3 4 11 17 30 29 67 41
144 115 215 205 153 193 191 217 350 223 89 3 114 1 161 -17 31 -12 67 -31 80
-42 66 -57 79 -71 95 -100 9 -18 19 -60 22 -93 5 -55 6 -58 14 -31 21 74 -23
188 -99 255 -117 103 -275 126 -443 64 -72 -26 -81 -34 -220 -174 -80 -81
-158 -156 -175 -167 -16 -12 -116 -64 -222 -117 -185 -93 -194 -98 -262 -172
-79 -86 -136 -191 -173 -317 -12 -42 -27 -76 -32 -74 -28 9 -66 213 -66 350 0
147 34 258 109 357 40 54 64 76 226 210 182 150 284 290 360 493 24 63 56 95
144 141 211 111 479 109 831 -6 111 -36 282 -122 360 -181 152 -116 237 -253
250 -401 6 -78 7 -80 16 -41 5 22 9 74 9 116 -1 62 -6 86 -29 133 -104 213
-360 394 -682 485 -146 40 -208 51 -344 58 -137 7 -254 -7 -385 -46 -52 -15
-96 -26 -99 -24 -7 7 65 129 111 187 83 106 226 198 363 232 82 21 261 15 335
-11 62 -21 142 -69 173 -104 l24 -26 -16 31 c-103 209 -449 253 -757 98 -45
-22 -69 -30 -69 -22 0 23 90 148 149 207 118 118 237 170 407 178 145 7 228
-15 292 -78 120 -117 146 -325 62 -502 l-20 -42 30 35 c75 88 103 276 60 404
-25 77 -85 150 -166 201 -139 89 -372 87 -560 -5 -118 -57 -208 -146 -329
-322 -118 -172 -175 -248 -184 -248 -4 0 -20 33 -36 73 -36 94 -74 151 -176
270 -149 173 -193 267 -191 408 2 198 112 400 295 545 164 129 292 175 492
177 129 1 226 -15 342 -59 34 -13 63 -21 63 -18 0 12 -157 77 -233 96 -69 17
-102 20 -231 16 -166 -6 -190 -11 -341 -83 -147 -70 -272 -189 -367 -348 -66
-111 -90 -187 -95 -307 -8 -177 27 -280 149 -445 133 -178 159 -252 159 -450
1 -146 -20 -248 -68 -338 -42 -78 -165 -197 -243 -235 -72 -34 -120 -49 -120
-36 0 5 29 50 65 99 113 159 183 308 210 450 42 216 -11 402 -153 544 -51 51
-93 80 -179 125 -199 103 -261 184 -271 348 -3 49 -8 88 -12 88 -5 0 -11 -31
-15 -69 -18 -179 66 -310 277 -434 196 -115 278 -246 278 -443 0 -188 -73
-358 -260 -599 -146 -189 -200 -286 -229 -409 -9 -38 -21 -71 -27 -73 -16 -5
-63 127 -76 215 -20 135 19 296 130 533 64 136 75 184 80 336 4 125 2 151 -18
215 -30 100 -93 216 -194 357 -171 238 -213 319 -240 461 -42 218 9 459 126
595 126 148 259 211 490 235 95 10 150 9 283 -5 l40 -4 -31 14 c-68 30 -317
45 -409 24z m-504 -3550 c52 -15 77 -31 120 -72 57 -53 103 -122 114 -168 6
-25 5 -26 -56 -33 -155 -16 -275 -131 -353 -340 -39 -104 -76 -164 -128 -211
-68 -61 -120 -79 -204 -70 -61 6 -71 11 -114 51 -71 67 -91 121 -91 252 0 222
80 398 233 515 136 103 303 129 479 76z"/>
<path d="M2207 1880 c-142 -36 -285 -167 -313 -285 -6 -25 1 -20 39 32 81 109
221 194 354 215 69 11 192 7 228 -7 11 -5 17 -4 12 0 -31 35 -244 64 -320 45z"/>
<path d="M2220 1721 c-48 -19 -107 -67 -97 -78 4 -3 19 3 34 13 15 10 52 33
82 51 60 36 51 42 -19 14z"/>
<path d="M2318 1675 c-82 -22 -168 -91 -168 -134 0 -19 30 -51 47 -51 7 0 58
45 115 100 111 107 112 114 6 85z"/>
<path d="M2015 1596 c-37 -38 -32 -96 9 -96 32 0 68 42 69 82 2 29 -1 33 -25
36 -19 2 -36 -5 -53 -22z"/>
<path d="M2027 1400 c-39 -34 -67 -102 -67 -161 0 -48 12 -55 52 -32 39 23 97
126 101 179 2 35 0 39 -25 42 -18 2 -37 -6 -61 -28z"/>
<path d="M1882 1398 c2 -13 10 -23 18 -23 8 0 16 10 18 23 3 17 -2 22 -18 22
-16 0 -21 -5 -18 -22z"/>
<path d="M2212 1402 c-18 -31 -64 -154 -59 -158 8 -9 78 138 75 158 l-3 23
-13 -23z"/>
<path d="M2443 5501 c-39 -24 -106 -108 -139 -174 -57 -112 -83 -314 -55 -430
12 -50 54 -141 69 -151 5 -3 0 27 -10 67 -21 82 -25 257 -8 347 17 93 72 217
127 291 29 38 51 69 50 69 -1 0 -16 -9 -34 -19z"/>
<path d="M3545 5451 c-111 -40 -165 -80 -165 -123 0 -26 45 -34 76 -13 44 29
170 154 154 154 -8 0 -38 -8 -65 -18z"/>
<path d="M2972 5424 c-12 -3 -30 -16 -38 -30 -10 -14 -26 -24 -40 -24 -55 0
-172 -81 -204 -140 -13 -25 -6 -26 17 -1 10 10 60 45 112 76 88 54 97 57 140
51 40 -5 225 25 239 39 15 15 -177 39 -226 29z"/>
<path d="M2190 5382 c-78 -49 -144 -140 -133 -183 5 -19 6 -19 25 -2 11 10 29
36 40 58 11 22 38 62 60 88 44 53 46 63 8 39z"/>
<path d="M3637 5339 c-57 -11 -140 -48 -185 -81 -84 -64 -153 -194 -176 -330
-10 -56 0 -46 19 20 54 185 163 296 359 363 44 16 76 28 69 29 -6 0 -17 2 -25
4 -7 2 -35 0 -61 -5z"/>
<path d="M2407 5238 c-32 -68 -63 -166 -54 -174 2 -2 14 27 27 64 13 37 36 93
52 125 15 31 24 57 19 57 -6 0 -26 -33 -44 -72z"/>
<path d="M3317 5279 c-15 -12 -45 -47 -66 -78 -83 -125 -111 -244 -85 -371 32
-151 39 -146 39 27 0 202 20 267 117 384 52 62 50 79 -5 38z"/>
<path d="M1938 5220 c-101 -92 -140 -152 -136 -205 3 -38 5 -40 39 -43 49 -4
69 22 108 141 17 51 42 111 56 135 13 23 20 42 16 42 -4 0 -41 -31 -83 -70z"/>
<path d="M2867 5230 c-36 -11 -181 -159 -209 -213 -45 -89 -62 -231 -38 -334
12 -52 51 -156 56 -150 2 2 -3 38 -11 81 -29 149 -17 272 37 383 44 90 89 139
141 152 67 17 177 55 177 62 0 8 -82 29 -107 28 -10 0 -30 -4 -46 -9z"/>
<path d="M3735 5215 c-126 -34 -244 -112 -321 -210 -68 -89 -66 -87 87 42 81
69 179 125 279 159 50 17 58 23 35 23 -16 0 -52 -6 -80 -14z"/>
<path d="M1538 5183 c-46 -50 -103 -145 -124 -210 -26 -83 -17 -240 19 -318
29 -63 87 -158 93 -153 2 2 -8 26 -21 53 -42 86 -59 170 -59 295 0 93 4 127
23 180 22 64 55 123 95 168 32 36 13 25 -26 -15z"/>
<path d="M3031 5071 c-72 -168 -44 -364 66 -461 40 -35 103 -68 103 -53 0 3
-18 21 -40 40 -53 46 -108 158 -121 247 -9 64 -1 179 17 250 10 41 -2 30 -25
-23z"/>
<path d="M2894 5071 c-92 -56 -165 -210 -163 -346 1 -66 -2 -71 41 65 24 78
89 206 129 256 40 51 40 53 -7 25z"/>
<path d="M2126 5063 c-12 -47 -16 -136 -7 -205 10 -77 62 -208 83 -208 5 0 8
6 5 13 -50 132 -70 218 -71 314 -1 57 -2 103 -3 103 -1 0 -4 -8 -7 -17z"/>
<path d="M1972 5023 c-43 -66 -74 -161 -70 -211 l3 -41 40 66 c29 49 43 87 52
142 7 42 12 80 10 85 -2 5 -17 -14 -35 -41z"/>
<path d="M3976 5059 c-53 -13 -194 -80 -252 -120 -59 -40 -154 -136 -196 -197
-24 -35 -9 -23 63 50 61 62 117 108 159 131 88 49 227 93 334 107 l89 11 41
-39 c46 -45 52 -47 167 -67 46 -7 100 -17 119 -21 32 -6 28 -1 -40 46 -115 80
-162 101 -228 101 -31 -1 -93 1 -137 4 -44 2 -97 0 -119 -6z"/>
<path d="M1531 5014 c-31 -119 -34 -266 -8 -359 10 -34 13 -9 17 175 3 118 4
217 3 219 -1 1 -6 -14 -12 -35z"/>
<path d="M1289 4992 c-57 -37 -126 -117 -140 -164 -15 -47 -5 -86 25 -98 53
-20 78 7 91 100 10 73 23 115 50 154 13 20 23 36 22 36 -2 0 -23 -13 -48 -28z"/>
<path d="M1783 4920 c-22 -55 -23 -75 -3 -37 12 21 19 44 17 50 -3 7 -9 1 -14
-13z"/>
<path d="M4020 4935 c0 -8 64 -33 219 -86 146 -50 162 -47 70 12 -72 46 -170
79 -234 79 -30 0 -55 -2 -55 -5z"/>
<path d="M2016 4812 c-21 -75 -21 -156 0 -176 18 -19 20 -19 44 -6 31 17 35
70 9 155 -12 42 -25 78 -29 80 -4 3 -15 -21 -24 -53z"/>
<path d="M3813 4860 c-101 -24 -225 -125 -276 -226 -42 -83 -41 -102 2 -38
104 156 227 239 372 251 54 5 67 9 49 14 -33 9 -107 9 -147 -1z"/>
<path d="M4330 4725 c-78 -22 -166 -67 -232 -120 -71 -57 -151 -174 -178 -261
-21 -70 -27 -197 -10 -224 7 -11 10 -3 10 28 0 56 40 173 84 249 80 136 245
250 396 274 229 35 456 -52 674 -260 l59 -56 -29 54 c-72 136 -252 268 -416
306 -99 23 -292 28 -358 10z"/>
<path d="M3765 4721 c-64 -17 -135 -64 -156 -102 -8 -15 -2 -15 44 3 34 13 96
23 182 29 129 10 202 26 239 54 18 14 14 15 -50 15 -38 0 -105 2 -149 5 -44 2
-93 1 -110 -4z"/>
<path d="M1109 4689 c-47 -17 -63 -87 -35 -154 8 -19 20 -35 25 -35 31 0 86
105 79 150 -4 32 -37 50 -69 39z"/>
<path d="M1832 4693 c-20 -8 -42 -59 -42 -96 0 -81 57 -176 143 -238 50 -36
61 -37 43 -1 -21 40 -34 96 -46 196 -16 130 -39 163 -98 139z"/>
<path d="M2920 4680 c0 -23 23 -90 31 -90 4 0 1 21 -8 48 -17 52 -23 62 -23
42z"/>
<path d="M886 4571 c-52 -186 -19 -381 85 -495 60 -65 128 -97 219 -102 l65
-4 -50 16 c-88 26 -147 58 -189 100 -105 105 -146 270 -116 474 5 35 8 66 6
67 -2 2 -11 -23 -20 -56z"/>
<path d="M2176 4594 c-34 -34 -2 -110 62 -147 43 -25 185 -87 190 -83 4 5
-115 164 -157 209 -38 40 -70 47 -95 21z"/>
<path d="M2032 4543 c9 -100 69 -192 152 -235 45 -23 153 -38 142 -20 -4 7
-16 12 -27 12 -30 0 -111 44 -140 77 -44 50 -52 63 -79 141 -35 97 -55 108
-48 25z"/>
<path d="M4376 4565 c-114 -32 -239 -117 -318 -218 -35 -45 -19 -37 47 24 50
47 138 102 207 131 46 19 71 22 183 22 123 0 136 -2 239 -37 60 -20 115 -42
123 -48 7 -7 16 -9 19 -6 8 8 -79 65 -142 93 -118 52 -255 67 -358 39z"/>
<path d="M2940 4531 c-31 -58 7 -155 81 -205 45 -31 172 -96 178 -91 2 2 -10
26 -26 52 -16 26 -49 81 -72 121 -76 131 -133 174 -161 123z"/>
<path d="M3705 4521 c-51 -23 -107 -85 -130 -144 -26 -68 -17 -186 19 -260 26
-53 161 -196 173 -183 3 3 -11 26 -32 52 -21 25 -56 80 -77 122 -39 75 -40 79
-36 158 8 145 75 220 210 233 l73 6 -49 18 c-63 22 -101 21 -151 -2z"/>
<path d="M987 4457 c-7 -75 6 -175 30 -221 30 -61 86 -109 158 -136 33 -13 32
-1 -6 46 -42 53 -116 201 -149 297 l-27 79 -6 -65z"/>
<path d="M1420 4460 c48 -96 106 -146 161 -138 13 2 25 11 27 20 3 13 -12 24
-55 43 -32 14 -80 47 -107 73 l-48 47 22 -45z"/>
<path d="M767 4436 c-11 -78 -8 -206 8 -265 24 -92 62 -156 130 -220 67 -62
131 -91 199 -91 27 0 24 4 -27 24 -84 35 -131 68 -177 128 -81 102 -110 190
-119 358 -5 100 -7 109 -14 66z"/>
<path d="M4427 4452 c-21 -23 -21 -27 -1 -46 12 -13 40 -16 147 -16 152 1 154
9 18 55 -91 30 -141 32 -164 7z"/>
<path d="M3714 4428 c-50 -24 -63 -111 -23 -154 63 -68 196 25 157 110 -21 47
-85 68 -134 44z"/>
<path d="M1325 4400 c15 -54 71 -144 100 -162 32 -20 76 -21 82 -1 3 6 -28 35
-67 63 -39 29 -82 69 -96 89 -21 29 -24 31 -19 11z"/>
<path d="M4288 4406 c-64 -23 -129 -67 -184 -125 -30 -31 -54 -59 -54 -63 0
-4 30 15 66 43 36 27 113 72 170 99 57 28 104 52 104 55 0 10 -66 4 -102 -9z"/>
<path d="M647 4330 c-12 -43 -7 -182 8 -249 29 -123 105 -229 210 -296 70 -45
109 -55 207 -56 114 -1 156 12 217 67 65 59 65 72 0 29 -67 -46 -118 -58 -206
-52 -143 11 -279 108 -355 254 -45 84 -58 134 -67 243 -4 59 -9 77 -14 60z"/>
<path d="M1591 4237 c-13 -6 -29 -20 -34 -29 -15 -24 6 -66 40 -79 29 -12 169
-6 233 10 l35 8 -95 45 c-112 54 -147 62 -179 45z"/>
<path d="M3747 4203 c-14 -14 -6 -77 15 -119 23 -47 97 -125 84 -89 -4 11 -16
58 -27 104 -11 47 -25 91 -31 98 -11 14 -31 17 -41 6z"/>
<path d="M5080 4139 c41 -38 93 -78 116 -89 108 -53 186 19 94 87 -16 12 -244
73 -270 72 -8 0 19 -31 60 -70z"/>
<path d="M4572 4151 c-10 -6 -4 -10 20 -15 47 -9 111 -51 193 -127 l68 -64
-33 60 c-18 33 -49 77 -70 97 -49 48 -140 73 -178 49z"/>
<path d="M4410 4089 c-36 -12 -68 -24 -73 -28 -4 -4 45 -15 108 -25 92 -15
118 -16 130 -6 21 18 19 37 -7 54 -40 25 -89 26 -158 5z"/>
<path d="M521 4099 c-2 -20 31 -185 41 -203 23 -44 65 -59 88 -31 19 22 5 56
-52 133 -29 39 -58 78 -65 89 -6 10 -12 15 -12 12z"/>
<path d="M5355 4051 c7 -12 117 -63 122 -57 3 3 -19 18 -49 35 -52 30 -85 40
-73 22z"/>
<path d="M3025 3963 c102 -174 111 -379 26 -568 -16 -36 -28 -65 -26 -65 2 0
23 28 47 63 48 70 82 158 92 234 8 64 -14 178 -49 248 -25 52 -100 145 -115
145 -5 0 6 -26 25 -57z"/>
<path d="M5113 3972 c32 -35 136 -74 342 -130 16 -4 15 0 -7 17 -40 32 -123
66 -207 85 -40 9 -90 24 -109 32 -34 14 -35 14 -19 -4z"/>
<path d="M3142 3945 c2 -6 15 -35 30 -65 94 -188 74 -383 -57 -580 -30 -45
-55 -84 -55 -88 0 -15 66 59 107 121 114 172 131 373 43 522 -29 50 -74 109
-68 90z"/>
<path d="M2233 3911 c-80 -29 -147 -69 -205 -122 l-53 -49 75 39 c123 64 224
91 343 91 60 0 127 -6 161 -15 33 -9 61 -14 63 -12 8 8 -101 68 -140 77 -69
16 -186 11 -244 -9z"/>
<path d="M5149 3853 c19 -36 110 -113 210 -178 110 -70 128 -78 110 -42 -34
64 -84 108 -166 147 -46 22 -102 52 -124 66 -33 21 -39 22 -30 7z"/>
<path d="M1542 3825 c-18 -15 -42 -55 -60 -98 -53 -129 -52 -130 52 -27 75 74
96 101 96 122 0 24 -4 28 -29 28 -17 0 -42 -11 -59 -25z"/>
<path d="M460 3787 c0 -174 101 -341 247 -410 60 -28 78 -32 153 -32 67 0 95
5 130 22 l45 21 -98 1 c-158 2 -251 42 -355 155 -56 61 -84 126 -103 230 -6
36 -13 66 -15 66 -2 0 -4 -24 -4 -53z"/>
<path d="M660 3823 c0 -33 81 -97 142 -113 27 -7 30 -7 14 3 -11 7 -44 32 -75
56 -31 24 -62 48 -68 54 -9 6 -13 6 -13 0z"/>
<path d="M4371 3819 c-75 -14 -182 -72 -249 -134 -34 -32 -61 -60 -58 -62 3
-3 24 8 48 25 24 16 86 49 138 73 94 43 97 43 205 44 102 0 114 -2 170 -30 33
-16 65 -31 70 -33 25 -12 -33 41 -74 67 -76 47 -167 66 -250 50z"/>
<path d="M5068 3785 c6 -11 78 -92 162 -180 156 -165 192 -209 236 -292 l25
-48 -6 40 c-9 59 -57 156 -101 205 -21 23 -79 77 -129 118 -49 41 -114 98
-144 126 -29 28 -49 42 -43 31z"/>
<path d="M1923 3758 c-5 -7 -22 -35 -37 -61 -34 -59 -121 -147 -184 -187 -55
-35 -36 -39 42 -10 91 35 162 119 185 221 11 47 9 56 -6 37z"/>
<path d="M610 3707 c0 -21 63 -126 92 -154 57 -55 123 -78 218 -75 51 2 45 11
-22 36 -56 21 -198 114 -250 164 -21 20 -38 33 -38 29z"/>
<path d="M1243 3669 c-34 -17 -79 -33 -100 -35 -65 -10 -71 -14 -33 -30 43
-18 134 -21 182 -5 49 16 86 56 72 79 -17 27 -54 24 -121 -9z"/>
<path d="M4365 3663 l-25 -28 20 -20 c16 -15 33 -20 74 -19 64 2 156 30 156
49 0 19 -85 45 -146 45 -45 0 -57 -4 -79 -27z"/>
<path d="M4270 3620 c-20 -6 -21 -8 -5 -8 11 0 29 3 40 8 25 11 -1 11 -35 0z"/>
<path d="M5110 3564 c19 -22 71 -81 115 -130 96 -106 141 -170 173 -244 l23
-55 -5 49 c-14 120 -104 234 -321 405 -10 9 -4 -2 15 -25z"/>
<path d="M2260 3560 c14 -4 49 -15 79 -25 29 -9 82 -34 118 -55 63 -39 64 -39
43 -10 -31 43 -76 78 -118 90 -46 12 -161 13 -122 0z"/>
<path d="M5483 3513 c7 -52 100 -277 111 -266 10 10 7 205 -4 245 -14 50 -34
68 -77 68 l-36 0 6 -47z"/>
<path d="M5000 3485 c0 -2 20 -15 44 -29 24 -14 81 -61 127 -103 45 -43 77
-67 70 -55 -20 37 -81 101 -126 132 -38 26 -115 63 -115 55z"/>
<path d="M2260 3476 c0 -3 13 -12 30 -21 16 -8 39 -33 50 -55 33 -64 27 -102
-37 -228 -48 -95 -58 -124 -61 -177 -2 -36 -1 -77 4 -92 7 -25 8 -22 14 27 8
65 21 94 95 220 51 87 55 99 55 156 0 70 -24 116 -75 145 -34 19 -75 33 -75
25z"/>
<path d="M2064 3435 c-9 -14 -15 -27 -13 -30 3 -2 12 10 21 26 21 36 15 39 -8
4z"/>
<path d="M435 3338 c9 -123 22 -170 53 -183 12 -5 22 -14 22 -20 1 -26 29 44
30 74 0 35 -86 231 -102 231 -6 0 -7 -41 -3 -102z"/>
<path d="M2161 3384 c-29 -36 -26 -60 9 -96 25 -24 36 -29 58 -23 41 10 62 34
62 72 0 70 -86 101 -129 47z"/>
<path d="M4265 3360 c-18 -19 -18 -24 -5 -47 23 -40 60 -48 115 -24 25 11 45
24 45 30 0 15 -65 51 -102 57 -26 5 -38 1 -53 -16z"/>
<path d="M4114 3356 c-78 -25 -174 -108 -214 -186 -9 -18 3 -10 41 25 77 73
134 109 212 134 67 22 81 42 29 40 -15 0 -45 -6 -68 -13z"/>
<path d="M1860 3303 c-34 -53 -45 -98 -35 -141 8 -36 37 -65 62 -60 16 3 18
15 18 126 0 67 -3 122 -8 122 -4 0 -21 -21 -37 -47z"/>
<path d="M2001 3341 c-7 -5 -16 -32 -19 -60 -4 -43 0 -61 26 -114 17 -34 47
-80 67 -102 l36 -40 -6 30 c-4 17 -10 80 -15 141 -4 60 -12 120 -19 132 -12
23 -45 29 -70 13z"/>
<path d="M600 3316 c0 -15 44 -86 53 -86 5 0 -1 17 -14 38 -26 43 -39 59 -39
48z"/>
<path d="M4644 3188 c77 -120 112 -152 140 -129 9 8 16 29 16 49 0 30 -9 44
-54 88 -49 47 -139 104 -165 104 -6 0 22 -51 63 -112z"/>
<path d="M1128 3283 c7 -3 16 -2 19 1 4 3 -2 6 -13 5 -11 0 -14 -3 -6 -6z"/>
<path d="M1018 3261 c-89 -35 -138 -86 -138 -145 0 -42 17 -39 57 11 55 69
100 111 142 133 33 17 34 19 11 19 -14 0 -46 -8 -72 -18z"/>
<path d="M1218 3224 c-92 -31 -183 -81 -198 -108 -29 -56 8 -92 69 -66 28 11
209 186 200 193 -2 3 -34 -6 -71 -19z"/>
<path d="M4126 3238 c-48 -10 -76 -33 -76 -63 0 -52 52 -58 156 -19 91 34 91
34 55 56 -43 27 -88 36 -135 26z"/>
<path d="M1406 3219 c-31 -24 -32 -32 -9 -55 15 -14 30 -16 103 -10 104 7 160
16 160 25 0 7 -195 61 -218 61 -5 0 -21 -9 -36 -21z"/>
<path d="M4388 3219 c-25 -14 -22 -44 6 -67 23 -17 191 -60 201 -50 9 9 -58
79 -99 103 -45 26 -80 31 -108 14z"/>
<path d="M4873 3164 c49 -99 60 -151 61 -286 1 -71 4 -128 7 -128 11 0 29 101
29 161 0 68 -28 159 -71 236 -39 68 -58 80 -26 17z"/>
<path d="M675 3180 c-9 -14 22 -121 43 -150 13 -16 29 -25 48 -25 23 0 30 6
37 31 12 42 -6 79 -61 121 -46 35 -57 39 -67 23z"/>
<path d="M2975 3153 c-17 -17 -31 -47 -46 -98 -7 -27 -3 -25 41 24 49 54 64
91 36 91 -8 0 -22 -7 -31 -17z"/>
<path d="M3976 3133 c-29 -27 -56 -79 -56 -109 0 -10 21 15 46 55 26 39 45 74
42 76 -2 2 -17 -7 -32 -22z"/>
<path d="M1273 3124 c-52 -23 -72 -54 -35 -54 24 0 79 35 92 59 13 26 8 25
-57 -5z"/>
<path d="M5010 3138 c0 -4 12 -43 27 -85 24 -69 27 -93 28 -203 0 -118 -2
-128 -29 -184 -16 -32 -58 -89 -93 -127 l-65 -68 49 16 c69 24 153 110 182
187 18 48 22 78 20 155 -1 88 -5 104 -38 177 -33 73 -80 149 -81 132z"/>
<path d="M1753 3093 c-19 -7 -16 -48 5 -66 22 -20 43 -22 60 -5 17 17 15 35
-8 58 -20 20 -34 23 -57 13z"/>
<path d="M4126 3076 c-74 -28 -145 -120 -146 -190 l0 -29 29 39 c60 84 143
127 265 140 37 4 66 10 66 14 0 29 -154 48 -214 26z"/>
<path d="M1381 3064 c-122 -21 -175 -58 -141 -99 21 -25 61 -17 165 34 55 27
112 53 128 56 15 4 27 11 27 16 0 13 -80 9 -179 -7z"/>
<path d="M1900 3060 c0 -23 42 -71 86 -96 33 -19 63 -28 112 -31 l67 -4 -77
34 c-42 19 -96 48 -120 64 -63 43 -68 45 -68 33z"/>
<path d="M4630 3060 c0 -13 28 -25 38 -16 3 4 0 11 -8 16 -20 13 -30 12 -30 0z"/>
<path d="M4391 3019 c-46 -18 -7 -36 92 -44 58 -4 113 -15 150 -30 64 -26 61
-11 -6 28 -67 40 -190 64 -236 46z"/>
<path d="M3823 2938 c10 -90 26 -120 55 -102 32 20 27 71 -12 130 -20 30 -40
54 -44 54 -4 0 -4 -37 1 -82z"/>
<path d="M440 3006 c0 -12 30 -68 61 -116 114 -175 266 -292 439 -336 76 -20
242 -22 340 -4 61 11 172 59 185 80 8 14 2 13 -85 -11 -97 -27 -295 -37 -394
-19 -219 38 -420 181 -515 368 -18 36 -31 52 -31 38z"/>
<path d="M4769 2994 c-14 -17 -11 -30 37 -168 32 -93 41 -87 50 36 5 68 3 90
-10 116 -18 36 -54 43 -77 16z"/>
<path d="M911 2984 c7 -9 35 -27 63 -41 41 -21 59 -24 103 -20 52 5 113 33
113 50 0 5 -10 7 -22 3 -70 -19 -154 -18 -211 2 -47 17 -56 18 -46 6z"/>
<path d="M5196 2955 c22 -66 34 -125 34 -165 0 -72 -35 -160 -91 -229 -52 -65
-43 -67 28 -7 23 20 54 61 69 92 37 76 32 172 -15 265 -17 35 -28 55 -25 44z"/>
<path d="M794 2952 c9 -15 80 -60 106 -67 14 -3 -3 12 -38 34 -63 41 -78 48
-68 33z"/>
<path d="M4214 2941 c-28 -7 -128 -61 -112 -61 9 0 192 61 197 66 7 6 -51 3
-85 -5z"/>
<path d="M5456 2920 c18 -73 114 -269 114 -233 0 6 -27 66 -60 134 -33 68 -58
113 -54 99z"/>
<path d="M3682 2861 c-12 -28 -52 -80 -88 -117 -35 -37 -63 -69 -60 -71 2 -2
26 7 53 21 67 34 110 84 118 139 11 72 2 83 -23 28z"/>
<path d="M461 2775 c69 -149 139 -222 207 -216 6 0 12 14 12 31 0 25 -11 39
-72 87 -40 32 -97 83 -126 113 l-53 55 32 -70z"/>
<path d="M331 2816 c-2 -35 31 -142 61 -198 61 -114 188 -235 304 -290 199
-93 458 -69 625 59 42 32 109 110 109 127 0 3 -28 -17 -62 -45 -119 -95 -237
-139 -378 -139 -277 0 -541 189 -642 460 -9 25 -17 37 -17 26z"/>
<path d="M3741 2707 c-110 -94 -128 -118 -115 -154 14 -41 61 -43 99 -6 32 32
80 129 94 191 5 23 8 42 7 42 0 -1 -39 -33 -85 -73z"/>
<path d="M841 2715 c53 -29 173 -55 249 -54 117 1 129 15 20 22 -52 3 -137 15
-189 26 -111 24 -114 25 -80 6z"/>
<path d="M1560 2719 c-62 -25 -81 -80 -36 -101 20 -9 45 -4 146 30 67 22 118
42 113 45 -4 3 -32 12 -62 21 -61 18 -123 20 -161 5z"/>
<path d="M4462 2689 c74 -49 139 -160 148 -254 l5 -60 24 38 c36 58 38 113 8
173 -14 27 -39 59 -56 72 -43 31 -117 62 -149 62 -25 0 -23 -3 20 -31z"/>
<path d="M5409 2672 c-9 -15 -33 -54 -53 -86 -40 -66 -47 -123 -20 -150 19
-19 25 -20 59 -4 61 28 92 141 61 223 -10 25 -21 45 -24 45 -4 0 -14 -12 -23
-28z"/>
<path d="M4384 2660 c-30 -12 -54 -49 -54 -82 0 -65 87 -92 135 -43 33 33 32
70 -4 106 -31 30 -42 33 -77 19z"/>
<path d="M3422 2639 c-81 -40 -191 -209 -136 -209 28 0 137 64 181 106 28 26
43 49 43 65 0 51 -32 65 -88 38z"/>
<path d="M4207 2587 c-17 -18 -54 -60 -81 -91 l-49 -58 62 31 c80 41 143 97
139 125 -5 34 -36 31 -71 -7z"/>
<path d="M680 2532 c0 -18 48 -52 113 -82 59 -27 203 -58 214 -46 3 3 -28 14
-69 26 -40 12 -111 42 -157 66 -85 45 -101 51 -101 36z"/>
<path d="M3509 2466 c-87 -36 -158 -87 -226 -160 -72 -76 -84 -102 -20 -43 64
60 144 119 232 172 110 66 113 72 14 31z"/>
<path d="M5170 2459 c-72 -29 -107 -109 -55 -129 33 -13 68 1 92 37 54 77 36
121 -37 92z"/>
<path d="M4950 2440 c-20 -20 -26 -50 -14 -63 9 -8 61 19 67 35 5 16 -10 48
-23 48 -6 0 -19 -9 -30 -20z"/>
<path d="M395 2397 c39 -53 115 -96 115 -67 0 8 -48 43 -129 94 -8 5 -2 -8 14
-27z"/>
<path d="M1893 2415 c-76 -23 -177 -94 -160 -111 3 -3 35 6 70 20 36 14 89 31
118 37 71 15 217 6 299 -20 72 -22 64 -9 -20 34 -104 53 -219 68 -307 40z"/>
<path d="M4267 2395 c-24 -23 -21 -52 6 -66 13 -7 78 -14 157 -17 153 -4 155
0 23 59 -85 38 -162 49 -186 24z"/>
<path d="M4133 2393 c15 -2 37 -2 50 0 12 2 0 4 -28 4 -27 0 -38 -2 -22 -4z"/>
<path d="M4834 2358 c-11 -13 -38 -38 -59 -56 -34 -28 -36 -32 -15 -26 43 12
110 63 110 84 0 26 -12 25 -36 -2z"/>
<path d="M5241 2307 c-41 -48 -50 -63 -36 -65 33 -7 66 9 85 41 19 31 27 88
13 86 -5 0 -32 -28 -62 -62z"/>
<path d="M1243 2265 c-107 -51 -135 -69 -143 -91 -22 -56 18 -91 83 -73 43 12
121 88 166 163 19 31 32 58 30 60 -2 2 -64 -24 -136 -59z"/>
<path d="M1859 2296 c-76 -27 -135 -94 -160 -179 -5 -16 -7 -28 -5 -26 2 2 22
28 44 58 38 50 93 101 153 143 29 20 17 22 -32 4z"/>
<path d="M601 2250 c46 -82 114 -125 153 -97 19 14 19 16 4 39 -15 23 -143 98
-168 98 -7 0 -3 -15 11 -40z"/>
<path d="M4898 2274 c-73 -22 -99 -73 -57 -115 41 -41 143 -7 209 67 25 29 29
39 19 50 -15 18 -108 17 -171 -2z"/>
<path d="M1985 2255 c-31 -17 -45 -32 -45 -52 0 -23 41 -24 122 -3 46 12 106
25 133 29 l50 8 -30 12 c-50 22 -195 25 -230 6z"/>
<path d="M1602 2205 c-70 -63 -117 -165 -63 -135 17 9 42 44 100 143 13 20 21
37 18 37 -3 0 -27 -20 -55 -45z"/>
<path d="M845 2202 c6 -6 36 -24 69 -41 59 -31 99 -38 125 -22 11 7 3 12 -30
21 -49 12 -136 38 -159 47 -10 4 -12 2 -5 -5z"/>
<path d="M4718 2187 c31 -7 46 -7 54 1 9 9 -1 12 -42 11 l-55 -1 43 -11z"/>
<path d="M1818 2144 c-46 -24 -51 -94 -8 -94 51 0 115 67 95 99 -9 15 -55 13
-87 -5z"/>
<path d="M4580 2154 c0 -12 103 -67 156 -84 128 -39 244 -35 342 12 54 26 49
33 -9 12 -29 -11 -79 -16 -149 -17 -98 0 -113 2 -222 40 -65 23 -118 39 -118
37z"/>
<path d="M546 2115 c26 -117 98 -235 180 -294 70 -50 136 -71 222 -71 97 0
138 16 207 83 56 54 57 56 16 27 -24 -16 -73 -39 -109 -50 -201 -62 -379 33
-488 263 -19 40 -31 59 -28 42z"/>
<path d="M880 2065 c68 -70 158 -90 280 -64 65 14 55 29 -20 29 -39 0 -84 9
-132 26 -40 15 -95 33 -122 40 l-49 13 43 -44z"/>
<path d="M711 2058 c7 -12 40 -50 73 -84 71 -70 126 -94 222 -94 71 0 92 14
36 25 -49 9 -183 72 -258 121 -94 62 -87 59 -73 32z"/>
<path d="M3889 2056 c21 -25 120 -68 149 -64 21 2 27 8 27 27 0 28 -16 34
-120 46 -62 6 -68 5 -56 -9z"/>
<path d="M1574 2040 c-66 -27 -85 -120 -35 -171 72 -71 197 -6 171 89 -17 65
-83 104 -136 82z"/>
<path d="M5410 1986 c-59 -39 -96 -89 -129 -176 -17 -45 -31 -85 -31 -88 1
-11 38 38 97 128 31 47 70 102 86 123 33 42 27 46 -23 13z"/>
<path d="M4120 1992 c8 -5 26 -13 40 -16 17 -5 20 -4 10 2 -8 5 -26 13 -40 16
-17 5 -20 4 -10 -2z"/>
<path d="M4343 1928 c70 -100 138 -135 145 -76 5 43 -13 64 -89 102 -101 51
-109 47 -56 -26z"/>
<path d="M4205 1860 c26 -46 72 -93 106 -110 41 -21 133 -27 144 -10 4 6 -5
10 -19 10 -48 0 -129 40 -211 102 -16 12 -25 16 -20 8z"/>
<path d="M1705 1810 c-70 -73 -161 -89 -238 -40 -51 32 -55 32 -31 -6 36 -55
123 -70 193 -35 42 22 129 111 108 111 -2 0 -16 -14 -32 -30z"/>
<path d="M4520 1807 c0 -42 81 -61 144 -34 l30 13 -55 11 c-118 25 -119 25
-119 10z"/>
<path d="M3585 1796 c-63 -17 -109 -35 -103 -42 5 -4 118 -26 216 -41 35 -6
82 18 82 42 0 7 -12 23 -26 34 -31 24 -91 27 -169 7z"/>
<path d="M4753 1753 c-15 -3 -23 -12 -23 -24 0 -30 63 -24 155 17 28 13 26 13
-40 12 -38 0 -80 -3 -92 -5z"/>
<path d="M3930 1748 c0 -4 5 -19 10 -33 6 -15 17 -71 26 -124 8 -53 23 -107
32 -120 9 -13 24 -34 33 -47 l16 -24 2 33 c8 92 3 119 -33 190 -33 65 -86 142
-86 125z"/>
<path d="M4863 1673 c-85 -43 -117 -73 -78 -73 19 0 73 29 105 57 14 12 36 31
50 42 36 29 27 26 -77 -26z"/>
<path d="M3470 1685 c0 -1 35 -23 79 -49 72 -42 121 -58 121 -38 0 14 -43 48
-75 60 -28 11 -125 32 -125 27z"/>
<path d="M3784 1666 c-10 -27 1 -59 28 -79 34 -25 58 -16 58 22 0 47 -72 94
-86 57z"/>
<path d="M4320 1676 c0 -15 90 -49 141 -53 120 -11 283 16 257 42 -4 4 -37 8
-74 8 -47 0 -79 -7 -113 -23 l-48 -22 -69 22 c-38 12 -75 24 -81 26 -7 3 -13
3 -13 0z"/>
<path d="M1375 1650 c-13 -6 -15 -9 -5 -9 8 0 22 4 30 9 18 12 2 12 -25 0z"/>
<path d="M1127 1581 c-102 -55 -97 -64 28 -50 107 12 158 41 142 83 -12 31
-75 19 -170 -33z"/>
<path d="M1454 1569 c-58 -60 -113 -94 -192 -120 l-57 -19 73 4 c96 5 152 38
200 119 19 32 33 60 30 62 -2 3 -26 -18 -54 -46z"/>
<path d="M1607 1571 c-32 -54 -108 -130 -161 -160 -185 -106 -465 -65 -657 96
-16 14 -32 23 -35 20 -9 -9 144 -126 205 -157 100 -50 165 -64 288 -63 96 1
119 4 165 26 113 52 158 100 198 206 23 61 22 74 -3 32z"/>
<path d="M5140 1568 c-25 -16 -74 -46 -110 -67 -74 -44 -102 -80 -81 -105 7
-9 27 -16 45 -16 25 0 43 12 96 68 60 63 122 153 103 151 -4 -1 -28 -14 -53
-31z"/>
<path d="M3670 1545 c-21 -26 9 -74 86 -137 73 -59 130 -91 179 -102 29 -6 29
-6 -6 13 -45 25 -102 87 -130 143 -38 76 -58 98 -88 98 -16 0 -34 -7 -41 -15z"/>
<path d="M3887 1503 c-12 -11 -8 -31 9 -47 18 -18 24 -19 43 -7 12 8 12 13 -3
35 -16 25 -36 33 -49 19z"/>
<path d="M2570 1430 c-14 -11 -29 -20 -33 -20 -18 0 -98 -76 -112 -106 -21
-46 -6 -84 33 -84 36 0 55 21 76 85 9 28 28 70 41 94 14 24 24 45 23 47 -2 1
-14 -6 -28 -16z"/>
<path d="M4260 1444 c0 -16 103 -136 141 -165 19 -14 48 -33 64 -42 43 -22
174 -47 242 -47 98 1 242 45 336 103 52 32 58 48 9 23 -44 -23 -135 -56 -174
-63 -18 -3 -78 -8 -134 -10 -176 -7 -315 43 -427 154 -31 31 -57 52 -57 47z"/>
<path d="M4460 1396 c0 -10 99 -35 180 -46 57 -8 98 -8 142 0 140 24 140 29 2
35 -55 3 -150 7 -211 11 -62 3 -113 3 -113 0z"/>
<path d="M4051 1380 c0 -8 4 -22 9 -30 12 -18 12 -2 0 25 -6 13 -9 15 -9 5z"/>
<path d="M4120 1389 c0 -17 35 -120 55 -159 90 -177 326 -267 525 -200 35 12
76 28 90 37 16 9 18 12 5 8 -272 -88 -521 5 -635 239 -22 45 -40 78 -40 75z"/>
<path d="M4250 1350 c0 -4 17 -34 39 -67 47 -72 99 -117 168 -143 100 -37 109
-32 29 15 -44 26 -114 82 -157 125 -44 42 -79 74 -79 70z"/>
<path d="M3480 1330 c1 -8 9 -31 20 -50 14 -26 19 -30 20 -15 0 11 -9 34 -20
50 -11 17 -20 23 -20 15z"/>
<path d="M1590 1280 c-25 -22 -72 -54 -105 -72 -112 -59 -167 -113 -101 -98
81 18 205 111 241 179 8 17 14 31 13 31 -2 -1 -23 -19 -48 -40z"/>
<path d="M980 1269 c112 -93 262 -116 386 -57 54 25 53 32 -1 13 -84 -30 -220
-14 -342 40 -67 30 -76 31 -43 4z"/>
<path d="M2597 1216 c-71 -135 -208 -227 -367 -247 -47 -6 -101 -8 -120 -4
-31 5 -33 4 -15 -7 13 -9 59 -13 135 -13 103 0 121 3 170 26 103 49 185 143
220 252 18 56 8 53 -23 -7z"/>
<path d="M3523 1218 c-15 -19 -24 -91 -17 -127 4 -18 19 -45 34 -61 53 -57
120 -30 120 48 0 84 -101 186 -137 140z"/>
<path d="M2354 1126 c-39 -28 -80 -57 -90 -63 -34 -22 36 5 81 32 40 23 92 72
84 78 -2 2 -36 -19 -75 -47z"/>
<path d="M1596 1119 c-58 -62 -113 -83 -221 -84 -75 0 -97 4 -133 23 -60 32
-63 21 -6 -16 102 -68 266 -51 345 35 27 28 64 83 58 83 -2 0 -21 -19 -43 -41z"/>
<path d="M1661 1086 c-48 -77 -154 -146 -248 -161 -83 -13 -210 41 -292 125
l-44 45 24 -44 c78 -142 274 -208 419 -140 70 33 117 79 148 147 28 62 24 79
-7 28z"/>
<path d="M4003 1024 c6 -98 29 -155 88 -219 67 -73 107 -90 214 -90 61 0 99 5
117 15 26 14 22 15 -65 15 -110 1 -163 21 -229 87 -51 50 -80 109 -98 193 -20
93 -33 92 -27 -1z"/>
<path d="M3436 1050 c16 -96 87 -180 152 -180 56 0 72 16 25 25 -75 13 -137
69 -168 151 l-15 39 6 -35z"/>
<path d="M4167 1049 c72 -124 275 -208 433 -180 103 19 109 33 10 25 -157 -11
-274 28 -388 130 -34 31 -65 56 -68 56 -3 0 3 -14 13 -31z"/>
<path d="M3857 1037 c-31 -32 -55 -82 -43 -94 2 -2 23 23 46 57 23 34 40 64
37 66 -3 3 -21 -10 -40 -29z"/>
<path d="M4100 1044 c-1 -58 58 -159 118 -199 55 -38 54 -31 -8 33 -38 39 -64
78 -82 122 -15 36 -27 56 -28 44z"/>
<path d="M1752 997 c6 -12 36 -47 67 -78 78 -77 173 -106 261 -79 23 7 24 8 5
14 -106 37 -220 88 -277 123 -56 34 -66 38 -56 20z"/>
<path d="M3700 935 c-16 -20 -9 -49 14 -53 22 -5 46 22 46 50 0 22 -42 25 -60
3z"/>
<path d="M3905 919 c-23 -73 -125 -127 -219 -115 -48 7 -50 6 -29 -9 119 -85
283 -41 283 76 0 63 -21 93 -35 48z"/>
<path d="M1670 860 c0 -20 83 -90 137 -116 107 -53 273 -43 374 21 58 37 55
45 -7 18 -31 -14 -69 -17 -179 -18 -133 0 -143 1 -196 28 -31 15 -73 38 -93
52 -20 13 -36 20 -36 15z"/>
<path d="M1532 778 c30 -40 84 -78 110 -78 24 0 35 28 17 45 -12 11 -133 65
-147 65 -3 0 7 -15 20 -32z"/>
<path d="M1710 692 c8 -5 26 -13 40 -16 17 -5 20 -4 10 2 -8 5 -26 13 -40 16
-17 5 -20 4 -10 -2z"/>
</g>
</svg>
