<?xml version="1.0" standalone="no"?>
<!DOCTYPE svg PUBLIC "-//W3C//DTD SVG 20010904//EN"
 "http://www.w3.org/TR/2001/REC-SVG-20010904/DTD/svg10.dtd">
<svg version="1.0" xmlns="http://www.w3.org/2000/svg"
 width="592.000000pt" height="600.000000pt" viewBox="0 0 592.000000 600.000000"
 preserveAspectRatio="xMidYMid meet">

<g transform="translate(0.000000,600.000000) scale(0.100000,-0.100000)"
fill="#000000" stroke="none">
<path d="M2012 5661 c-18 -87 -72 -160 -230 -308 -148 -141 -176 -179 -212
-301 -20 -66 -22 -89 -17 -220 3 -114 9 -163 27 -217 63 -199 185 -322 337
-341 29 -3 65 -3 80 1 25 6 21 9 -47 34 -88 31 -118 51 -184 120 -97 105 -129
225 -124 466 3 157 4 161 36 227 24 50 62 98 150 190 129 135 151 163 175 225
21 53 39 165 29 175 -4 4 -14 -19 -20 -51z"/>
<path d="M2469 5615 c-61 -45 -133 -122 -167 -178 -95 -157 -123 -384 -66
-537 18 -48 82 -155 89 -148 2 2 -8 40 -22 83 -23 69 -26 98 -27 210 -2 222
53 387 172 518 77 84 82 96 21 52z"/>
<path d="M2597 5589 c-108 -57 -151 -99 -145 -146 6 -54 34 -40 149 73 146
144 146 150 -4 73z"/>
<path d="M2995 5615 c-285 -63 -514 -282 -571 -546 -10 -45 -16 -120 -16 -194
1 -212 45 -359 163 -540 39 -61 73 -115 76 -121 3 -7 -32 -2 -89 13 -152 40
-226 31 -553 -72 -286 -89 -454 -98 -591 -31 -79 40 -128 88 -172 171 -25 46
-27 59 -27 170 0 108 3 127 28 189 15 38 26 70 24 73 -8 7 -45 -51 -77 -118
-28 -61 -30 -71 -30 -189 0 -110 3 -131 24 -175 51 -108 148 -196 258 -235 49
-17 94 -23 201 -27 75 -3 137 -7 137 -10 0 -9 -146 -232 -187 -286 -177 -229
-465 -246 -693 -39 -59 53 -62 54 -45 22 28 -54 124 -143 185 -172 198 -92
436 -50 591 105 34 34 100 113 146 174 96 129 128 158 233 212 207 108 392
127 545 57 75 -34 130 -88 167 -164 29 -59 33 -76 32 -147 0 -46 -7 -94 -15
-114 l-14 -34 -38 57 c-87 132 -279 196 -452 151 -107 -28 -188 -81 -385 -252
-52 -44 -118 -89 -174 -117 l-91 -46 -140 0 c-89 0 -161 5 -195 14 -63 16 -74
14 -33 -7 113 -59 263 -79 393 -53 114 23 151 44 342 189 168 127 226 158 335
178 55 10 144 0 184 -21 39 -21 100 -83 120 -121 26 -53 25 -139 -4 -209 -13
-30 -55 -112 -94 -181 -101 -178 -133 -284 -133 -441 0 -42 -4 -68 -11 -68
-16 0 -96 48 -170 101 -135 99 -332 170 -507 185 -115 9 -274 -12 -471 -63
-262 -67 -369 -69 -499 -5 -68 32 -200 158 -231 220 -20 39 -20 44 -5 67 23
35 13 73 -46 191 -73 148 -72 148 -67 -6 5 -146 13 -177 56 -202 18 -10 32
-28 36 -46 9 -44 76 -144 132 -197 61 -59 112 -88 209 -121 125 -42 245 -39
499 15 320 68 381 60 577 -72 l122 -82 -35 -6 c-19 -4 -60 -13 -92 -19 -32 -6
-100 -32 -150 -57 -76 -38 -106 -61 -176 -132 -124 -126 -160 -188 -236 -401
-74 -208 -151 -316 -265 -373 -48 -23 -67 -27 -147 -27 -201 0 -333 80 -429
261 -47 89 -50 65 -4 -36 58 -128 168 -226 302 -266 92 -28 234 -23 323 11
114 44 225 188 299 387 64 172 132 280 236 376 106 99 212 139 369 140 141 1
256 -39 396 -138 67 -47 180 -163 209 -215 l19 -33 -24 7 c-164 45 -400 15
-564 -72 -66 -35 -194 -163 -233 -232 -86 -154 -119 -397 -77 -565 28 -110
132 -230 221 -255 57 -16 91 -16 166 -1 118 25 203 114 277 289 24 55 57 124
74 154 35 57 103 110 165 128 46 12 139 13 147 1 9 -15 -13 -265 -30 -338 -17
-75 -95 -246 -144 -317 -101 -146 -228 -254 -403 -342 -124 -62 -235 -94 -383
-110 l-70 -7 38 -13 c62 -22 205 -37 278 -30 61 6 206 41 253 61 14 6 18 5 14
-6 -7 -20 -134 -86 -198 -102 l-54 -14 61 -7 c66 -7 204 6 295 29 68 17 121
43 201 97 32 21 62 36 67 33 16 -10 11 -77 -9 -120 -23 -49 -60 -84 -126 -119
l-50 -27 50 6 c132 16 251 70 340 156 l61 59 37 -44 c44 -53 138 -117 210
-144 60 -23 225 -45 262 -36 31 8 23 24 -12 24 -45 0 -115 41 -180 105 -48 48
-65 73 -77 115 -18 61 -20 96 -6 105 5 3 31 -10 57 -29 99 -70 226 -122 372
-151 65 -14 117 -16 230 -13 132 5 155 8 246 39 l100 33 -138 8 c-190 10 -283
36 -402 113 -162 103 -271 267 -321 482 -8 37 -19 123 -23 192 -6 108 -5 129
8 145 41 48 117 59 187 27 30 -14 68 -51 137 -134 120 -144 148 -159 345 -187
75 -11 151 -22 167 -25 70 -12 -45 35 -171 70 -70 20 -144 45 -164 55 -41 21
-90 72 -139 145 -89 133 -173 185 -296 185 -75 0 -74 -2 -49 93 39 151 106
221 240 253 52 12 81 13 139 5 141 -20 237 -71 391 -207 242 -214 370 -273
584 -274 198 0 335 52 451 172 45 47 90 120 104 168 5 19 0 15 -20 -15 -44
-64 -125 -144 -189 -186 -150 -99 -359 -109 -563 -28 -93 37 -119 56 -297 220
-80 74 -172 150 -205 169 -121 74 -273 120 -398 120 -29 0 -53 4 -53 9 0 13
146 76 225 97 53 14 106 19 215 19 215 0 280 -22 539 -178 158 -96 220 -122
336 -144 198 -36 400 27 556 174 122 115 206 270 230 422 10 69 5 111 -8 61
-11 -42 -102 -219 -145 -283 -129 -191 -316 -307 -492 -307 -71 0 -195 29
-253 59 -22 10 -103 63 -182 116 -150 101 -246 154 -339 186 -72 25 -209 49
-277 49 -88 0 -93 8 -33 47 74 49 127 101 233 233 111 138 164 176 276 192 88
13 198 -1 261 -33 63 -32 135 -109 148 -160 12 -42 9 -133 -5 -174 -7 -20 -7
-20 9 0 46 56 46 181 0 265 -69 126 -204 193 -379 186 -158 -6 -245 -55 -392
-221 -122 -140 -158 -165 -375 -275 -111 -56 -217 -114 -236 -129 -46 -36
-147 -163 -178 -223 -14 -28 -40 -96 -59 -152 l-32 -101 -22 70 c-49 156 -54
390 -12 515 43 128 104 198 321 372 110 88 170 149 227 233 47 69 104 181 134
260 28 75 56 106 136 148 225 118 504 120 846 6 202 -67 365 -159 480 -272
107 -105 153 -200 166 -342 7 -79 8 -79 22 -50 9 19 14 64 14 126 0 91 -2 99
-39 175 -32 63 -59 98 -135 175 -111 111 -207 173 -360 235 -223 90 -396 127
-611 128 -155 1 -237 -11 -354 -51 -38 -12 -75 -23 -82 -23 -15 0 38 97 92
172 215 292 658 365 890 146 47 -44 55 -49 49 -28 -29 97 -150 190 -283 219
-125 26 -316 3 -447 -55 -44 -20 -95 -42 -114 -50 l-33 -15 22 38 c72 120 147
200 250 268 107 70 166 87 312 93 102 3 137 1 183 -13 101 -32 176 -122 210
-250 30 -117 14 -222 -55 -354 l-39 -76 41 45 c77 86 118 198 118 322 0 180
-89 318 -248 384 -63 27 -76 28 -217 29 -131 0 -159 -3 -220 -23 -167 -56
-299 -175 -463 -417 -56 -82 -114 -165 -130 -184 l-29 -35 -27 71 c-38 100
-88 177 -186 288 -96 108 -141 175 -170 253 -105 281 100 665 443 827 131 63
218 79 387 72 96 -3 157 -11 210 -27 85 -24 198 -72 252 -106 57 -36 57 -29 0
16 -62 50 -235 132 -322 154 -154 39 -370 29 -508 -25 -349 -134 -608 -499
-577 -814 7 -77 45 -200 77 -255 12 -19 51 -75 89 -125 133 -177 164 -276 156
-490 -10 -244 -93 -407 -268 -524 -56 -37 -155 -78 -165 -68 -3 2 22 42 55 88
173 242 249 451 238 654 -6 117 -36 206 -97 297 -63 94 -135 154 -272 225
-190 99 -255 184 -265 346 -4 86 -11 132 -18 125 -2 -2 -9 -37 -15 -77 -21
-135 18 -255 114 -351 28 -29 98 -79 155 -113 231 -137 314 -284 297 -522 -14
-180 -71 -301 -273 -570 -158 -210 -204 -292 -229 -407 -9 -43 -20 -78 -24
-78 -5 0 -15 17 -23 38 -37 92 -47 148 -47 257 0 127 15 194 80 350 106 255
119 293 131 381 17 129 6 253 -30 354 -40 108 -81 180 -193 335 -148 207 -178
258 -218 375 -18 52 -23 95 -27 217 -6 173 6 247 62 368 92 200 289 325 562
356 89 10 290 5 336 -7 9 -3 17 -1 17 4 0 11 -61 28 -150 42 -89 14 -263 11
-335 -5z m-553 -3646 c73 -16 142 -52 192 -103 46 -46 91 -115 101 -157 6 -26
5 -26 -54 -32 -111 -10 -224 -82 -291 -186 -17 -28 -51 -100 -75 -160 -50
-128 -70 -162 -122 -213 -62 -60 -113 -80 -194 -79 -78 1 -109 13 -156 63 -68
70 -93 189 -73 338 22 163 91 303 194 398 58 53 171 117 232 131 56 13 184 13
246 0z"/>
<path d="M2145 1833 c-149 -53 -252 -160 -295 -305 -5 -16 -7 -28 -6 -28 2 0
26 31 54 69 78 107 193 188 314 220 49 14 270 11 318 -4 54 -17 3 14 -60 36
-90 31 -254 37 -325 12z"/>
<path d="M2247 1699 c-50 -12 -96 -35 -129 -67 -48 -45 -29 -59 25 -19 18 12
63 39 102 59 71 38 71 43 2 27z"/>
<path d="M2333 1645 c-145 -32 -249 -129 -198 -185 10 -11 27 -20 37 -20 12 0
67 47 131 110 62 60 108 109 102 109 -5 0 -38 -7 -72 -14z"/>
<path d="M2010 1573 c-38 -26 -49 -45 -50 -80 0 -66 77 -57 106 12 18 43 18
50 -2 69 -19 20 -24 20 -54 -1z"/>
<path d="M2023 1375 c-60 -26 -121 -173 -93 -225 14 -26 30 -25 64 1 59 47
118 179 96 218 -12 24 -23 25 -67 6z"/>
<path d="M1845 1360 c-12 -37 20 -55 45 -25 10 12 10 18 0 30 -17 21 -37 19
-45 -5z"/>
<path d="M2187 1358 c-31 -71 -76 -192 -73 -195 8 -8 106 171 106 193 0 17
-26 18 -33 2z"/>
<path d="M3560 5526 c-47 -18 -94 -37 -105 -43 -37 -20 -67 -60 -63 -85 2 -18
10 -24 39 -26 33 -3 43 4 135 92 54 52 95 95 89 95 -5 0 -48 -15 -95 -33z"/>
<path d="M2963 5500 c-12 -5 -28 -18 -35 -30 -8 -12 -23 -20 -39 -20 -40 0
-150 -72 -196 -129 -53 -64 -55 -83 -5 -41 51 43 160 114 199 129 18 7 67 14
110 16 79 2 213 31 213 45 0 22 -207 48 -247 30z"/>
<path d="M2170 5459 c-81 -49 -155 -144 -148 -192 6 -41 32 -22 81 58 27 43
62 94 78 112 43 49 41 53 -11 22z"/>
<path d="M3608 5401 c-160 -51 -271 -178 -312 -355 -29 -122 -19 -141 17 -35
40 116 81 182 154 249 66 61 146 103 237 126 36 9 63 20 60 25 -9 15 -95 9
-156 -10z"/>
<path d="M2423 5378 c-41 -45 -86 -171 -97 -273 -5 -47 -4 -45 24 35 16 47 46
120 66 162 38 83 41 113 7 76z"/>
<path d="M1919 5306 c-42 -36 -94 -88 -115 -117 -32 -44 -38 -61 -39 -102 0
-59 18 -77 62 -61 36 12 64 55 98 151 15 43 40 104 56 136 16 31 26 57 22 57
-5 0 -42 -29 -84 -64z"/>
<path d="M3294 5316 c-85 -88 -134 -215 -134 -348 0 -63 22 -164 45 -208 12
-22 13 -4 12 140 -2 157 0 169 26 240 17 47 48 103 82 148 30 39 55 74 55 77
0 3 -8 5 -17 5 -9 0 -40 -24 -69 -54z"/>
<path d="M1510 5273 c-105 -116 -151 -211 -165 -339 -12 -110 33 -256 111
-358 40 -53 56 -56 24 -5 -38 62 -71 188 -77 291 -10 163 24 273 124 401 25
32 43 60 40 63 -2 3 -28 -21 -57 -53z"/>
<path d="M2846 5296 c-22 -8 -44 -22 -49 -32 -5 -9 -36 -42 -68 -73 -67 -65
-102 -134 -125 -243 -25 -116 -8 -231 55 -368 l21 -45 -4 35 c-2 19 -11 79
-21 134 -15 85 -16 110 -6 185 14 98 59 203 113 263 33 37 45 42 268 115 25 8
-32 32 -91 38 -35 3 -68 0 -93 -9z"/>
<path d="M3761 5289 c-109 -21 -248 -109 -317 -200 -82 -108 -84 -119 -9 -54
147 127 225 175 377 230 l93 34 -50 -1 c-27 0 -70 -4 -94 -9z"/>
<path d="M3047 5173 c-45 -88 -60 -157 -55 -257 4 -97 34 -184 81 -235 41 -44
100 -81 130 -81 l30 0 -42 30 c-46 34 -98 109 -127 185 -25 67 -26 242 0 334
9 35 15 65 12 68 -2 3 -16 -17 -29 -44z"/>
<path d="M2095 5115 c-26 -94 -17 -238 19 -320 26 -57 61 -105 77 -105 4 0 -5
38 -21 85 -49 145 -63 227 -56 321 4 46 5 84 3 84 -3 0 -13 -29 -22 -65z"/>
<path d="M2878 5127 c-100 -81 -162 -227 -156 -369 l3 -73 23 88 c27 107 95
253 151 326 63 84 57 92 -21 28z"/>
<path d="M1485 5083 c-23 -89 -31 -286 -15 -364 7 -32 16 -59 20 -59 6 0 20
478 14 488 -1 1 -9 -28 -19 -65z"/>
<path d="M1952 5103 c-52 -80 -83 -162 -89 -232 -6 -76 -3 -75 54 21 31 52 44
89 57 159 9 50 15 93 13 96 -3 2 -18 -18 -35 -44z"/>
<path d="M4010 5125 c-30 -7 -101 -37 -158 -65 -117 -60 -232 -159 -306 -264
-58 -82 -66 -101 -20 -46 20 25 72 80 115 122 120 118 287 192 493 217 l71 8
46 -41 c45 -40 52 -43 190 -70 79 -15 150 -29 157 -31 28 -10 7 8 -88 70 -133
87 -175 105 -247 105 -32 0 -89 2 -128 4 -42 3 -92 0 -125 -9z"/>
<path d="M1225 5046 c-144 -105 -193 -252 -90 -271 49 -10 63 10 80 107 16 89
37 152 55 163 14 8 33 45 23 45 -4 0 -35 -20 -68 -44z"/>
<path d="M1742 4970 c-34 -77 -34 -112 -1 -43 17 35 29 69 26 75 -3 7 -14 -7
-25 -32z"/>
<path d="M4055 4991 c-8 -14 369 -150 382 -138 10 11 -139 100 -206 123 -67
24 -165 32 -176 15z"/>
<path d="M1986 4880 c-38 -135 -28 -205 29 -205 38 0 58 35 50 90 -7 51 -47
175 -56 175 -3 0 -14 -27 -23 -60z"/>
<path d="M3837 4920 c-116 -29 -231 -128 -289 -250 -48 -98 -61 -157 -19 -83
109 195 249 299 422 310 44 3 75 9 68 14 -24 12 -142 18 -182 9z"/>
<path d="M4409 4791 c-69 -13 -190 -67 -250 -112 -154 -113 -252 -312 -234
-474 9 -73 24 -107 25 -53 0 68 21 142 66 235 62 129 145 213 276 278 93 46
99 47 205 52 144 7 225 -8 340 -62 123 -58 193 -105 286 -194 42 -40 77 -68
77 -61 0 23 -68 125 -118 177 -82 86 -221 165 -347 199 -62 17 -264 26 -326
15z"/>
<path d="M3790 4777 c-59 -17 -111 -49 -150 -93 -30 -34 -35 -59 -8 -36 27 21
127 43 223 48 55 3 123 10 150 16 52 11 125 46 125 60 0 4 -37 8 -82 8 -46 0
-112 2 -148 5 -38 3 -84 0 -110 -8z"/>
<path d="M2916 4735 c7 -57 24 -105 36 -105 13 0 1 54 -23 105 l-19 40 6 -40z"/>
<path d="M1797 4749 c-73 -43 -56 -191 34 -294 31 -35 113 -95 130 -95 5 0 -3
24 -16 53 -16 34 -30 94 -40 172 -16 125 -34 168 -71 172 -10 2 -27 -2 -37 -8z"/>
<path d="M1025 4725 c-55 -54 -13 -219 43 -173 22 19 62 108 62 140 0 29 -31
58 -63 58 -10 0 -29 -11 -42 -25z"/>
<path d="M832 4663 c-79 -235 -33 -481 110 -595 68 -54 203 -91 257 -71 20 8
16 11 -35 22 -233 50 -350 231 -330 509 4 51 11 116 17 143 16 73 6 69 -19 -8z"/>
<path d="M2155 4645 c-29 -28 -31 -45 -11 -83 23 -44 56 -68 157 -117 93 -43
124 -54 117 -37 -16 36 -176 236 -199 247 -36 19 -36 19 -64 -10z"/>
<path d="M1997 4631 c-8 -30 10 -105 37 -159 47 -93 139 -151 241 -152 67 0
63 10 -10 29 -98 24 -167 96 -214 224 -27 73 -45 92 -54 58z"/>
<path d="M4410 4612 c-132 -44 -247 -127 -337 -245 l-48 -62 41 35 c23 19 70
59 105 89 146 124 321 167 513 126 110 -23 197 -60 334 -141 53 -31 -51 57
-127 107 -99 66 -208 101 -331 105 -73 3 -108 0 -150 -14z"/>
<path d="M2942 4588 c-37 -47 -18 -129 42 -191 41 -42 189 -127 219 -127 13 0
7 15 -22 63 -21 34 -57 94 -79 132 -68 117 -128 162 -160 123z"/>
<path d="M3722 4569 c-81 -41 -151 -151 -152 -240 0 -56 18 -139 42 -188 21
-44 111 -140 170 -183 42 -29 34 -8 -26 69 -25 32 -59 84 -75 117 -27 51 -31
68 -31 142 0 164 68 243 220 254 l75 5 -34 19 c-55 29 -137 32 -189 5z"/>
<path d="M703 4515 c-22 -111 -25 -177 -9 -264 19 -108 64 -198 131 -265 68
-69 128 -97 213 -102 l67 -5 -70 27 c-140 53 -240 159 -287 304 -15 48 -22
104 -27 215 l-6 150 -12 -60z"/>
<path d="M924 4535 c-12 -66 1 -196 25 -250 26 -59 72 -110 121 -134 36 -19
90 -35 90 -27 0 2 -16 23 -36 47 -45 54 -126 214 -160 316 -14 43 -28 80 -29
82 -2 1 -7 -13 -11 -34z"/>
<path d="M1340 4564 c0 -10 45 -92 73 -133 36 -52 105 -88 137 -71 40 21 23
48 -45 71 -24 8 -65 39 -102 76 -35 33 -63 59 -63 57z"/>
<path d="M4483 4509 c-46 -24 -35 -73 18 -84 45 -10 285 5 268 16 -8 5 -48 22
-90 38 -87 34 -164 46 -196 30z"/>
<path d="M1260 4477 c0 -30 55 -141 88 -179 34 -38 70 -53 103 -43 30 10 22
33 -22 63 -71 47 -112 86 -141 131 -16 26 -28 38 -28 28z"/>
<path d="M3743 4480 c-53 -21 -76 -105 -44 -157 33 -53 92 -56 150 -7 60 50
48 129 -24 160 -39 16 -51 16 -82 4z"/>
<path d="M4350 4461 c-70 -22 -140 -69 -213 -143 -43 -44 -76 -82 -74 -85 3
-2 34 19 69 47 34 28 118 78 186 111 67 33 120 65 117 70 -7 11 -49 11 -85 0z"/>
<path d="M577 4410 c-4 -14 -10 -61 -13 -105 -18 -222 86 -424 269 -522 71
-38 73 -38 182 -37 129 0 174 16 245 89 44 44 50 77 7 38 -35 -33 -95 -61
-155 -74 -150 -31 -338 70 -435 232 -51 86 -76 174 -85 299 -5 70 -10 97 -15
80z"/>
<path d="M1538 4275 c-15 -9 -31 -27 -34 -42 -6 -22 -1 -32 25 -55 29 -26 37
-28 114 -28 45 1 108 6 141 13 71 15 68 19 -57 77 -103 47 -151 56 -189 35z"/>
<path d="M3767 4243 c-4 -3 -7 -25 -7 -47 0 -48 41 -125 90 -171 33 -30 33
-30 26 -5 -3 14 -15 65 -26 114 -11 49 -25 95 -31 102 -12 15 -41 19 -52 7z"/>
<path d="M5081 4233 c28 -34 112 -109 158 -140 66 -45 110 -51 147 -20 25 22
27 28 19 52 -6 16 -21 36 -35 47 -23 17 -242 77 -284 78 -16 0 -17 -2 -5 -17z"/>
<path d="M4620 4191 l-35 -7 30 -8 c68 -16 143 -64 234 -151 l94 -90 -28 50
c-60 106 -102 160 -141 182 -46 25 -104 34 -154 24z"/>
<path d="M445 4105 c20 -157 48 -227 93 -233 64 -9 69 55 10 130 -23 29 -58
76 -76 103 l-34 50 7 -50z"/>
<path d="M4428 4118 c-38 -12 -68 -24 -68 -28 0 -8 126 -30 212 -37 50 -4 58
-2 68 16 9 18 7 25 -14 46 -21 21 -34 25 -78 24 -29 0 -83 -10 -120 -21z"/>
<path d="M5425 4079 c6 -9 149 -79 163 -79 9 0 -72 61 -100 76 -32 17 -72 19
-63 3z"/>
<path d="M2980 4068 c0 -3 18 -37 40 -74 69 -118 85 -180 85 -324 -1 -111 -4
-134 -28 -200 -15 -41 -41 -97 -57 -125 l-30 -50 45 49 c61 68 123 194 137
279 22 137 -31 293 -137 397 -30 30 -55 52 -55 48z"/>
<path d="M5169 4006 c36 -38 110 -71 246 -110 66 -19 129 -38 140 -41 15 -5
12 0 -10 19 -42 38 -136 80 -225 101 -41 10 -97 27 -125 37 l-50 20 24 -26z"/>
<path d="M3155 3943 c55 -95 76 -170 76 -283 0 -148 -28 -232 -127 -371 -31
-44 -54 -82 -51 -85 11 -11 131 136 163 200 100 204 84 392 -49 559 -45 55
-51 45 -12 -20z"/>
<path d="M2192 3935 c-71 -28 -148 -76 -216 -136 -59 -52 -60 -69 -1 -29 153
105 386 148 563 104 71 -18 89 -12 52 17 -65 50 -111 64 -225 66 -97 3 -117 0
-173 -22z"/>
<path d="M381 3830 c-2 -146 38 -253 129 -353 74 -81 156 -119 265 -125 86 -5
171 14 195 43 9 11 -2 12 -67 8 -143 -9 -270 35 -366 129 -68 67 -103 139
-128 264 -26 131 -27 133 -28 34z"/>
<path d="M5200 3902 c0 -12 48 -71 95 -114 39 -36 254 -172 262 -165 9 10 -45
93 -82 125 -19 18 -81 54 -137 82 -56 28 -110 58 -120 67 -10 9 -18 11 -18 5z"/>
<path d="M1490 3841 c-36 -38 -106 -189 -98 -212 2 -6 50 37 106 95 81 81 103
110 100 128 -2 18 -10 24 -36 26 -28 3 -40 -3 -72 -37z"/>
<path d="M580 3848 c0 -26 95 -103 148 -120 28 -9 52 -15 52 -13 0 2 -21 19
-47 36 -27 18 -69 50 -94 71 -48 40 -59 45 -59 26z"/>
<path d="M4369 3836 c-107 -41 -206 -109 -260 -178 -29 -37 -31 -41 -9 -26 14
10 54 34 89 54 203 117 383 134 524 49 31 -19 57 -31 57 -27 0 18 -102 97
-155 121 -44 20 -202 24 -246 7z"/>
<path d="M5110 3843 c0 -17 81 -111 226 -264 70 -74 144 -159 164 -191 33 -51
43 -71 65 -133 15 -42 15 6 1 69 -31 130 -70 181 -278 361 -82 69 -155 136
-163 148 -8 12 -15 16 -15 10z"/>
<path d="M1855 3728 c-45 -80 -146 -180 -219 -216 -25 -13 -46 -25 -46 -26 0
-2 23 1 50 5 135 21 244 131 266 267 4 23 3 42 -2 42 -5 0 -27 -32 -49 -72z"/>
<path d="M530 3730 c0 -22 52 -112 86 -150 55 -61 123 -90 210 -90 40 0 75 4
78 9 3 5 -15 14 -40 21 -57 16 -199 105 -276 171 -32 28 -58 45 -58 39z"/>
<path d="M1260 3723 c-8 -3 -44 -19 -79 -35 -36 -16 -89 -32 -118 -35 -29 -3
-53 -9 -53 -13 0 -29 162 -51 224 -30 43 14 96 56 96 75 0 8 -10 21 -22 29
-24 17 -25 17 -48 9z"/>
<path d="M4450 3713 c-8 -3 -29 -18 -46 -32 -17 -16 -54 -32 -88 -40 -76 -17
-64 -27 15 -12 53 11 63 10 78 -3 33 -30 198 -12 236 26 27 26 -145 80 -195
61z"/>
<path d="M5136 3619 c12 -13 67 -73 123 -134 126 -136 188 -225 217 -312 l23
-68 1 52 c0 63 -28 143 -73 205 -31 44 -217 216 -280 260 l-32 22 21 -25z"/>
<path d="M2200 3582 c0 -5 29 -14 64 -21 76 -15 147 -47 201 -90 47 -38 58
-25 21 24 -31 40 -69 68 -115 83 -39 14 -171 16 -171 4z"/>
<path d="M5556 3563 c-8 -26 14 -101 63 -211 23 -51 41 -99 41 -107 0 -7 4
-16 9 -20 14 -8 25 118 17 203 -3 42 -14 92 -24 111 -15 32 -22 36 -59 39 -33
2 -42 -1 -47 -15z"/>
<path d="M5025 3522 c6 -5 44 -32 85 -59 87 -58 181 -149 217 -211 36 -61 40
-45 6 24 -35 73 -113 153 -183 190 -80 41 -137 67 -125 56z"/>
<path d="M2068 3493 c-30 -33 -58 -74 -58 -85 0 -22 21 -2 53 52 19 33 34 60
33 60 -1 0 -14 -12 -28 -27z"/>
<path d="M2257 3471 c54 -39 74 -71 81 -126 4 -40 -2 -58 -59 -171 -63 -125
-64 -127 -64 -210 0 -103 19 -135 28 -44 6 66 32 129 95 226 48 74 62 114 62
177 0 82 -61 149 -155 171 -28 7 -28 6 12 -23z"/>
<path d="M2139 3401 c-38 -38 -37 -65 6 -108 36 -36 54 -38 101 -8 45 29 38
111 -12 134 -40 18 -63 13 -95 -18z"/>
<path d="M4308 3379 c-46 -26 1 -99 63 -99 43 0 101 34 93 54 -7 19 -83 56
-115 56 -13 0 -32 -5 -41 -11z"/>
<path d="M4128 3361 c-65 -26 -139 -90 -188 -163 -22 -33 -38 -63 -36 -66 3
-2 28 20 55 50 63 69 156 129 244 158 37 12 65 26 61 31 -9 15 -86 9 -136 -10z"/>
<path d="M1847 3343 c-32 -34 -66 -109 -67 -145 0 -40 20 -78 50 -93 51 -26
59 -5 45 120 -4 42 -3 85 3 108 12 44 5 47 -31 10z"/>
<path d="M1983 3360 c-29 -12 -46 -75 -34 -128 14 -63 120 -226 136 -210 4 4
2 30 -4 58 -6 28 -11 78 -11 110 0 83 -18 158 -40 170 -21 11 -18 11 -47 0z"/>
<path d="M510 3355 c1 -24 59 -120 74 -123 14 -3 9 10 -19 55 -42 65 -55 82
-55 68z"/>
<path d="M4617 3298 c11 -13 51 -69 87 -125 37 -57 76 -108 88 -114 29 -16 65
-3 72 26 15 59 -61 147 -177 205 -74 37 -99 40 -70 8z"/>
<path d="M1003 3285 c-126 -34 -205 -109 -191 -181 7 -35 28 -23 88 50 59 71
93 96 190 135 l25 10 -30 0 c-16 0 -54 -7 -82 -14z"/>
<path d="M1178 3240 c-93 -32 -161 -65 -195 -94 -27 -23 -33 -35 -33 -67 0
-32 4 -40 23 -44 39 -10 78 13 170 103 85 83 117 122 100 122 -4 -1 -34 -10
-65 -20z"/>
<path d="M4147 3246 c-52 -19 -67 -34 -67 -67 0 -20 8 -34 26 -46 26 -17 30
-16 108 11 45 16 92 34 105 41 23 12 23 12 -21 38 -57 33 -104 40 -151 23z"/>
<path d="M4880 3258 c0 -4 18 -43 40 -86 48 -95 67 -165 75 -275 6 -75 -3
-172 -20 -222 l-7 -20 14 20 c48 66 70 213 49 318 -15 71 -69 180 -115 232
-19 22 -35 37 -36 33z"/>
<path d="M1355 3225 c-56 -55 -15 -80 120 -71 89 6 172 22 162 33 -8 7 -219
63 -240 63 -10 0 -29 -11 -42 -25z"/>
<path d="M4432 3224 c-27 -19 -28 -45 -3 -68 17 -15 219 -72 227 -63 9 9 -61
88 -103 116 -51 34 -87 39 -121 15z"/>
<path d="M603 3146 c6 -62 38 -130 68 -147 30 -15 69 3 70 33 3 65 -12 94 -73
138 -61 45 -72 41 -65 -24z"/>
<path d="M2972 3162 c-25 -26 -69 -139 -58 -149 6 -6 98 100 109 125 8 18 7
26 -6 39 -15 15 -18 14 -45 -15z"/>
<path d="M5075 3111 c43 -108 59 -202 53 -313 -7 -118 -41 -188 -138 -283 -38
-39 -66 -71 -61 -73 19 -6 132 59 172 100 94 96 132 253 94 384 -21 75 -77
182 -120 231 l-34 38 34 -84z"/>
<path d="M1254 3145 c-22 -11 -51 -24 -65 -30 -33 -14 -33 -51 0 -47 29 3 86
44 102 73 14 28 11 28 -37 4z"/>
<path d="M4008 3140 c-34 -35 -77 -125 -64 -137 3 -3 7 -4 9 -2 1 2 24 37 51
76 55 83 58 116 4 63z"/>
<path d="M324 3077 c77 -205 193 -354 353 -453 96 -60 180 -91 291 -105 157
-20 346 13 428 76 19 14 34 30 34 35 0 5 -30 0 -67 -11 -112 -33 -191 -42
-323 -36 -145 6 -214 23 -328 79 -146 72 -263 199 -361 396 -23 45 -43 82 -46
82 -3 0 6 -28 19 -63z"/>
<path d="M1704 3086 c-18 -46 29 -96 68 -75 28 15 32 36 14 64 -19 28 -73 35
-82 11z"/>
<path d="M4145 3076 c-34 -15 -111 -95 -124 -129 -11 -29 -24 -127 -17 -127 3
0 17 21 30 48 49 95 142 149 276 161 44 4 82 10 85 13 4 4 -11 16 -34 27 -47
25 -167 28 -216 7z"/>
<path d="M1320 3069 c-69 -12 -144 -48 -148 -72 -2 -10 4 -28 14 -39 24 -26
51 -20 184 41 58 27 117 52 132 56 86 22 -65 33 -182 14z"/>
<path d="M1860 3058 c0 -6 24 -35 54 -64 57 -55 109 -74 199 -74 l42 1 -95 47
c-52 26 -113 60 -135 75 -42 29 -65 34 -65 15z"/>
<path d="M4670 3060 c0 -12 50 -33 58 -26 3 3 -1 12 -8 21 -14 17 -50 20 -50
5z"/>
<path d="M3835 3013 c4 -10 10 -52 12 -93 5 -73 21 -110 48 -110 19 0 45 34
45 59 0 27 -31 89 -65 130 -29 34 -52 42 -40 14z"/>
<path d="M4427 3018 c-35 -27 -4 -41 105 -49 78 -5 117 -13 162 -33 33 -15 61
-24 63 -22 6 6 -55 50 -102 75 -71 37 -196 52 -228 29z"/>
<path d="M4827 3002 c-24 -26 -22 -45 19 -157 20 -55 39 -107 41 -115 7 -23
22 22 34 105 8 51 8 83 0 113 -19 69 -60 92 -94 54z"/>
<path d="M5258 2958 c23 -55 27 -77 27 -168 0 -94 -3 -111 -27 -160 -15 -30
-50 -79 -77 -107 -60 -63 -48 -69 26 -12 142 107 169 235 86 410 -47 101 -74
129 -35 37z"/>
<path d="M849 2977 c31 -34 102 -67 143 -67 18 0 50 5 70 10 39 11 87 44 77
54 -3 4 -39 1 -80 -5 -75 -12 -84 -10 -209 27 l-25 7 24 -26z"/>
<path d="M720 2962 c0 -27 101 -92 142 -92 17 0 9 8 -31 30 -30 17 -62 36 -70
44 -25 20 -41 28 -41 18z"/>
<path d="M5526 2930 c10 -58 63 -185 96 -231 55 -76 42 -24 -31 123 -44 90
-68 130 -65 108z"/>
<path d="M4245 2939 c-35 -10 -146 -78 -128 -79 6 0 45 14 86 30 42 17 84 30
94 30 10 1 29 7 43 15 24 14 24 14 -20 14 -25 -1 -58 -5 -75 -10z"/>
<path d="M3717 2887 c-19 -43 -58 -96 -130 -177 -27 -30 -44 -56 -38 -58 16
-5 111 49 147 85 35 34 49 87 42 153 l-3 35 -18 -38z"/>
<path d="M241 2845 c-3 -133 65 -272 194 -401 107 -108 209 -164 340 -190 183
-36 392 17 523 131 46 41 102 117 102 139 0 4 -30 -19 -66 -52 -114 -105 -258
-162 -410 -162 -81 0 -242 42 -313 81 -88 49 -184 132 -239 205 -49 65 -102
181 -121 261 l-9 38 -1 -50z"/>
<path d="M340 2850 c0 -18 82 -174 113 -215 60 -79 113 -113 148 -95 35 19 23
55 -33 102 -29 24 -92 82 -140 130 -49 48 -88 83 -88 78z"/>
<path d="M3748 2687 c-95 -86 -108 -103 -108 -131 0 -40 15 -56 54 -56 45 0
98 62 136 161 52 136 42 140 -82 26z"/>
<path d="M670 2755 c0 -9 115 -63 168 -79 98 -29 174 -38 254 -31 92 8 104 25
19 25 -75 0 -314 44 -384 70 -58 22 -57 22 -57 15z"/>
<path d="M1520 2714 c-47 -20 -70 -43 -70 -69 0 -30 19 -45 58 -45 41 0 255
71 245 81 -15 14 -133 49 -165 49 -18 -1 -49 -8 -68 -16z"/>
<path d="M4481 2691 c92 -58 179 -201 179 -296 l1 -50 24 28 c25 28 45 84 45
128 0 14 -12 49 -26 77 -31 63 -88 106 -170 127 -91 24 -107 19 -53 -14z"/>
<path d="M5451 2611 c-73 -111 -81 -149 -43 -193 21 -25 55 -22 86 7 37 34 56
84 56 146 0 48 -24 119 -40 119 -3 0 -30 -36 -59 -79z"/>
<path d="M4424 2650 c-53 -22 -71 -98 -34 -138 28 -30 101 -31 130 -2 25 25
27 90 3 119 -21 24 -68 35 -99 21z"/>
<path d="M3432 2628 c-71 -34 -182 -192 -155 -219 24 -24 219 94 247 149 20
39 -3 91 -39 92 -5 0 -30 -10 -53 -22z"/>
<path d="M4233 2563 c-21 -27 -62 -72 -90 -100 -29 -29 -51 -53 -49 -53 15 0
93 40 148 76 67 43 88 74 74 109 -11 29 -45 16 -83 -32z"/>
<path d="M610 2517 c0 -33 107 -96 207 -122 31 -8 91 -14 133 -14 41 1 66 3
55 5 -107 21 -140 30 -205 56 -41 16 -96 43 -123 59 -52 32 -67 36 -67 16z"/>
<path d="M3544 2461 c-123 -48 -193 -100 -278 -204 -68 -84 -73 -106 -8 -40
60 62 172 146 285 213 118 70 118 77 1 31z"/>
<path d="M5245 2444 c-44 -15 -95 -64 -95 -92 0 -22 19 -47 41 -55 43 -14 119
62 119 120 0 38 -15 45 -65 27z"/>
<path d="M5022 2434 c-42 -29 -52 -84 -16 -84 27 0 64 32 64 55 0 34 -22 48
-48 29z"/>
<path d="M278 2413 c26 -47 134 -129 154 -117 18 11 5 25 -64 71 -108 71 -101
68 -90 46z"/>
<path d="M1894 2410 c-61 -13 -144 -58 -183 -98 -18 -20 -29 -38 -24 -39 6 -2
44 10 85 26 172 69 337 62 501 -20 75 -38 65 -22 -26 41 -106 75 -251 112
-353 90z"/>
<path d="M4320 2387 c-35 -18 -35 -67 1 -84 14 -7 88 -15 165 -18 130 -6 138
-5 119 10 -32 26 -125 71 -184 89 -65 19 -69 19 -101 3z"/>
<path d="M4135 2381 c-6 -11 73 -25 101 -19 16 4 14 7 -9 16 -34 14 -84 16
-92 3z"/>
<path d="M3238 2358 c-8 -13 -21 -34 -28 -48 -12 -24 -12 -24 6 -8 25 22 58
78 46 78 -5 0 -16 -10 -24 -22z"/>
<path d="M4844 2299 c-63 -59 -64 -61 -32 -54 65 14 140 77 123 105 -11 18
-25 11 -91 -51z"/>
<path d="M5317 2293 c-31 -37 -57 -71 -57 -76 0 -5 17 -7 38 -4 45 8 78 43 88
93 11 61 -8 57 -69 -13z"/>
<path d="M1205 2254 c-161 -74 -206 -123 -155 -174 57 -57 150 5 264 175 27
41 32 55 19 55 -5 -1 -62 -26 -128 -56z"/>
<path d="M1825 2278 c-57 -20 -116 -78 -147 -145 -36 -75 -33 -105 4 -42 25
42 93 111 169 171 35 28 26 34 -26 16z"/>
<path d="M511 2253 c12 -32 53 -88 88 -120 38 -36 101 -29 101 12 0 12 -8 29
-17 38 -19 16 -163 97 -175 97 -4 0 -3 -12 3 -27z"/>
<path d="M4965 2255 c-122 -32 -127 -145 -6 -145 40 0 57 6 98 37 27 20 59 50
71 67 21 29 21 32 5 44 -22 16 -104 14 -168 -3z"/>
<path d="M1952 2233 c-32 -17 -50 -52 -37 -72 10 -17 64 -12 154 14 47 14 100
25 117 25 18 0 35 4 38 9 10 16 -57 33 -149 37 -71 3 -97 0 -123 -13z"/>
<path d="M1567 2187 c-60 -54 -97 -104 -97 -135 0 -35 29 -24 65 25 38 53 95
153 87 153 -4 0 -28 -19 -55 -43z"/>
<path d="M770 2179 c49 -41 138 -79 185 -79 62 0 56 16 -12 36 -32 8 -89 26
-128 40 -67 23 -69 23 -45 3z"/>
<path d="M4720 2171 c0 -12 82 -24 104 -15 14 5 15 9 4 15 -17 11 -108 11
-108 0z"/>
<path d="M461 2134 c-1 -35 38 -154 72 -217 74 -140 236 -229 389 -213 82 8
120 27 188 92 62 59 73 82 23 46 -253 -178 -537 -65 -654 263 -10 29 -18 41
-18 29z"/>
<path d="M4630 2122 c42 -37 118 -75 196 -98 114 -33 320 -3 366 54 11 14 10
15 -6 8 -92 -34 -119 -38 -228 -34 -97 4 -128 10 -214 40 -55 19 -111 41 -125
48 -17 9 -14 4 11 -18z"/>
<path d="M1803 2129 c-38 -11 -66 -48 -61 -81 2 -19 10 -24 41 -26 30 -3 43 2
67 27 33 32 40 75 14 85 -18 7 -19 7 -61 -5z"/>
<path d="M795 2046 c74 -69 124 -91 215 -90 80 0 164 19 155 34 -4 6 -35 10
-70 10 -46 0 -86 8 -146 30 -45 17 -101 35 -124 40 -23 5 -50 12 -61 16 -10 4
4 -14 31 -40z"/>
<path d="M625 2049 c5 -8 28 -40 53 -71 48 -62 100 -103 159 -124 44 -15 161
-18 183 -4 17 10 15 11 -59 30 -56 15 -179 75 -257 126 -91 60 -88 58 -79 43z"/>
<path d="M3900 2036 c0 -9 98 -65 132 -76 52 -16 80 -6 76 28 -3 23 -10 29
-48 39 -42 11 -160 18 -160 9z"/>
<path d="M1499 1981 c-31 -30 -39 -46 -39 -74 0 -73 88 -134 149 -103 39 20
71 63 71 93 0 43 -31 94 -66 109 -52 22 -73 17 -115 -25z"/>
<path d="M5483 1951 c-33 -21 -69 -54 -81 -72 -26 -43 -93 -201 -87 -207 8 -8
59 55 131 163 40 61 81 120 90 133 22 30 17 28 -53 -17z"/>
<path d="M4140 1965 c0 -7 43 -23 78 -30 21 -4 18 -1 -13 15 -39 19 -65 25
-65 15z"/>
<path d="M4351 1938 c25 -48 94 -128 125 -144 42 -23 64 -13 64 29 0 41 -23
64 -107 106 -77 38 -99 41 -82 9z"/>
<path d="M1692 1804 c-32 -41 -58 -62 -99 -81 -69 -32 -118 -27 -181 17 -24
17 -46 29 -48 27 -2 -2 9 -22 26 -45 29 -41 73 -62 128 -62 34 0 93 27 126 58
30 28 100 131 94 137 -2 2 -23 -21 -46 -51z"/>
<path d="M4230 1843 c0 -4 21 -34 46 -66 67 -86 153 -117 231 -86 27 11 26 12
-32 23 -77 15 -141 46 -199 97 -25 23 -46 37 -46 32z"/>
<path d="M4560 1766 c0 -8 12 -24 28 -36 22 -18 36 -21 74 -17 48 6 94 24 84
34 -9 9 -119 33 -153 33 -22 0 -33 -5 -33 -14z"/>
<path d="M3561 1747 c-36 -12 -66 -27 -68 -33 -2 -7 18 -14 49 -18 29 -4 87
-13 129 -22 85 -17 123 -9 134 26 5 15 0 29 -16 46 -20 21 -31 24 -93 24 -47
0 -93 -8 -135 -23z"/>
<path d="M3960 1683 c14 -39 50 -214 50 -247 0 -3 11 -17 25 -32 14 -15 35
-54 47 -87 26 -70 37 -60 14 11 -13 38 -14 55 -6 77 23 59 -42 224 -115 295
l-34 33 19 -50z"/>
<path d="M4873 1721 c-40 -3 -77 -11 -84 -18 -17 -17 -3 -43 24 -43 28 0 167
46 181 60 11 11 1 11 -121 1z"/>
<path d="M4925 1637 c-59 -31 -101 -59 -103 -70 -5 -27 38 -21 89 12 53 35
138 110 124 110 -5 0 -55 -23 -110 -52z"/>
<path d="M3510 1617 c36 -19 87 -46 114 -60 52 -28 66 -27 66 4 0 36 -87 75
-190 85 l-55 6 65 -35z"/>
<path d="M3812 1628 c-32 -32 11 -108 62 -108 46 0 42 70 -6 104 -27 19 -40
20 -56 4z"/>
<path d="M4366 1629 c3 -6 25 -20 48 -30 34 -15 66 -19 178 -19 136 0 188 10
188 35 0 16 -69 27 -122 19 -24 -4 -62 -15 -85 -26 l-41 -21 -82 27 c-93 30
-94 30 -84 15z"/>
<path d="M1320 1608 c-30 -12 -49 -23 -42 -26 16 -5 99 25 107 39 9 13 -3 11
-65 -13z"/>
<path d="M1169 1591 c-44 -14 -189 -102 -183 -112 7 -11 143 -2 194 13 35 10
80 44 80 60 0 13 -39 48 -52 47 -7 0 -25 -4 -39 -8z"/>
<path d="M1417 1537 c-54 -66 -131 -114 -217 -135 l-75 -19 46 -7 c79 -12 169
16 223 70 24 25 76 112 76 129 0 16 -22 0 -53 -38z"/>
<path d="M5249 1552 c-13 -10 -64 -43 -114 -71 -106 -63 -135 -87 -135 -116 0
-47 50 -59 106 -24 48 29 186 210 172 225 -3 2 -16 -4 -29 -14z"/>
<path d="M1552 1513 c-109 -170 -306 -244 -527 -198 -90 19 -232 90 -314 156
-69 56 -69 37 1 -27 64 -59 164 -124 239 -156 82 -34 216 -51 313 -38 139 17
261 108 306 227 30 81 21 98 -18 36z"/>
<path d="M3696 1504 c-35 -34 -19 -62 89 -154 64 -56 130 -93 183 -105 38 -8
45 10 7 19 -41 10 -103 74 -142 145 -20 36 -45 76 -56 89 -24 26 -59 29 -81 6z"/>
<path d="M3915 1454 c-14 -14 -14 -19 -2 -38 8 -11 26 -22 41 -24 22 -3 26 1
26 21 0 21 -27 57 -43 57 -3 0 -13 -7 -22 -16z"/>
<path d="M4290 1409 c0 -18 55 -92 111 -148 87 -89 206 -131 369 -131 42 0
103 7 135 15 80 21 210 87 260 131 l40 36 -36 -21 c-56 -32 -157 -68 -245 -86
-225 -46 -425 5 -566 146 -37 38 -68 64 -68 58z"/>
<path d="M2518 1361 c-77 -50 -112 -88 -123 -134 -15 -58 50 -102 87 -59 18
19 120 233 115 239 -2 2 -38 -19 -79 -46z"/>
<path d="M4156 1330 c25 -141 103 -262 214 -328 140 -82 303 -84 481 -4 90 40
95 56 10 26 -166 -58 -303 -54 -437 11 -104 51 -176 125 -230 239 -31 63 -42
80 -38 56z"/>
<path d="M4500 1344 c68 -31 182 -54 271 -54 97 0 182 15 198 34 9 10 -31 14
-202 19 -116 4 -232 9 -257 12 l-45 5 35 -16z"/>
<path d="M4280 1316 c0 -13 38 -81 69 -123 52 -72 163 -132 271 -147 l45 -6
-55 21 c-77 30 -172 99 -257 187 -40 41 -73 72 -73 68z"/>
<path d="M3490 1277 c13 -36 39 -87 45 -87 17 0 0 55 -25 82 l-30 33 10 -28z"/>
<path d="M1558 1237 c-27 -24 -85 -64 -130 -89 -46 -26 -96 -60 -112 -77 l-30
-31 26 0 c50 0 163 67 226 134 32 35 62 73 65 85 3 11 4 21 4 21 -1 0 -23 -19
-49 -43z"/>
<path d="M915 1213 c46 -41 125 -79 197 -94 61 -14 150 1 219 37 69 34 68 45
-2 23 -113 -35 -269 -15 -401 52 -54 28 -58 23 -13 -18z"/>
<path d="M2615 1230 c-14 -46 -77 -141 -124 -188 -96 -96 -245 -149 -391 -138
-75 6 -75 6 -40 -10 87 -40 233 -33 337 15 112 53 181 136 218 264 16 55 16
108 0 57z"/>
<path d="M3536 1158 c-21 -29 -21 -129 -1 -168 50 -97 164 -69 152 38 -5 49
-44 110 -86 135 -38 22 -47 22 -65 -5z"/>
<path d="M1567 1077 c-50 -63 -117 -95 -218 -103 -68 -6 -80 -4 -147 24 -39
17 -72 27 -72 23 0 -15 68 -61 111 -76 49 -18 151 -18 196 -2 55 21 120 74
148 121 38 64 27 72 -18 13z"/>
<path d="M2353 1081 c-34 -26 -77 -56 -97 -65 -43 -20 -60 -41 -25 -31 48 14
113 51 152 85 63 57 40 65 -30 11z"/>
<path d="M1621 1032 c-62 -96 -159 -158 -266 -169 -99 -10 -219 47 -310 149
l-47 53 29 -55 c82 -160 269 -239 425 -180 79 29 148 94 182 170 36 79 29 97
-13 32z"/>
<path d="M3440 1024 c-1 -55 33 -130 80 -177 46 -46 51 -48 96 -45 48 3 77 28
32 28 -34 1 -99 34 -130 67 -15 16 -39 56 -52 88 -14 33 -25 51 -26 39z"/>
<path d="M4029 1018 c-6 -144 52 -274 149 -337 107 -68 250 -67 337 3 19 15
19 16 -10 5 -39 -14 -160 -14 -211 0 -60 16 -129 66 -164 119 -27 41 -56 121
-74 205 -8 33 -26 36 -27 5z"/>
<path d="M4180 1023 c0 -18 79 -111 123 -144 118 -89 328 -114 447 -54 20 11
7 12 -87 8 -182 -9 -281 25 -411 141 -63 56 -72 62 -72 49z"/>
<path d="M3902 994 c-34 -27 -72 -91 -72 -121 0 -15 2 -15 14 -3 28 31 107
150 99 150 -4 0 -23 -12 -41 -26z"/>
<path d="M4132 980 c9 -86 75 -183 150 -221 53 -27 58 -19 9 14 -48 32 -94 97
-128 180 -32 79 -37 83 -31 27z"/>
<path d="M1700 952 c0 -4 22 -35 48 -67 64 -80 152 -127 238 -127 32 0 70 4
83 9 21 8 13 13 -65 43 -101 37 -201 86 -257 124 -41 28 -47 30 -47 18z"/>
<path d="M3718 866 c-15 -33 -4 -56 27 -56 28 0 52 37 42 64 -10 26 -56 20
-69 -8z"/>
<path d="M3920 833 c-33 -61 -93 -94 -174 -94 -30 0 -66 3 -78 7 -20 6 -21 5
-10 -9 24 -28 114 -67 156 -67 83 0 166 66 166 132 0 31 -16 78 -27 78 -5 0
-19 -21 -33 -47z"/>
<path d="M1610 811 c0 -23 110 -117 169 -145 60 -28 75 -31 166 -31 92 0 105
3 172 34 39 18 82 44 94 57 l23 24 -62 -25 c-56 -23 -75 -25 -209 -25 -137 0
-152 2 -202 26 -30 13 -76 40 -103 59 -26 19 -48 31 -48 26z"/>
<path d="M1477 719 c37 -64 125 -118 144 -88 20 32 9 47 -58 75 -38 15 -72 31
-77 36 -22 18 -26 6 -9 -23z"/>
<path d="M1650 630 c0 -11 33 -26 78 -36 23 -4 24 -3 9 6 -35 23 -87 40 -87
30z"/>
</g>
</svg>
